<svg width="25" height="24" viewBox="0 0 25 24" fill="none" xmlns="http://www.w3.org/2000/svg">
    <path
        d="M12.5 6.6002C12.5 8.03236 11.9311 9.40588 10.9184 10.4186C9.90569 11.4313 8.53218 12.0002 7.10001 12.0002C5.66784 12.0002 4.29433 11.4313 3.28164 10.4186C2.26894 9.40588 1.70001 8.03236 1.70001 6.6002C1.70001 5.16803 2.26894 3.79452 3.28164 2.78182C4.29433 1.76912 5.66784 1.2002 7.10001 1.2002C8.53218 1.2002 9.90569 1.76912 10.9184 2.78182C11.9311 3.79452 12.5 5.16803 12.5 6.6002ZM7.70001 4.2002C7.70001 4.04107 7.6368 3.88845 7.52428 3.77593C7.41175 3.66341 7.25914 3.6002 7.10001 3.6002C6.94088 3.6002 6.78827 3.66341 6.67575 3.77593C6.56323 3.88845 6.50001 4.04107 6.50001 4.2002V6.0002H4.70001C4.54088 6.0002 4.38827 6.06341 4.27575 6.17593C4.16323 6.28845 4.10001 6.44107 4.10001 6.6002C4.10001 6.75933 4.16323 6.91194 4.27575 7.02446C4.38827 7.13698 4.54088 7.2002 4.70001 7.2002H6.50001V9.0002C6.50001 9.15933 6.56323 9.31194 6.67575 9.42446C6.78827 9.53698 6.94088 9.6002 7.10001 9.6002C7.25914 9.6002 7.41175 9.53698 7.52428 9.42446C7.6368 9.31194 7.70001 9.15933 7.70001 9.0002V7.2002H9.50001C9.65914 7.2002 9.81175 7.13698 9.92428 7.02446C10.0368 6.91194 10.1 6.75933 10.1 6.6002C10.1 6.44107 10.0368 6.28845 9.92428 6.17593C9.81175 6.06341 9.65914 6.0002 9.50001 6.0002H7.70001V4.2002ZM17.3 4.8002H13.4516C13.334 4.38576 13.176 3.98384 12.98 3.6002H17.3C18.2548 3.6002 19.1705 3.97948 19.8456 4.65461C20.5207 5.32974 20.9 6.24542 20.9 7.2002V16.8002C20.9 17.755 20.5207 18.6707 19.8456 19.3458C19.1705 20.0209 18.2548 20.4002 17.3 20.4002H7.70001C6.74523 20.4002 5.82956 20.0209 5.15443 19.3458C4.4793 18.6707 4.10001 17.755 4.10001 16.8002V12.4802C4.48081 12.6754 4.88081 12.8326 5.30001 12.9518V16.8002C5.30001 17.2478 5.42241 17.6666 5.63601 18.0242L11.2388 12.5186C11.5754 12.1881 12.0283 12.0029 12.5 12.0029C12.9717 12.0029 13.4246 12.1881 13.7612 12.5186L19.3652 18.0242C19.5846 17.6536 19.7002 17.2308 19.7 16.8002V7.2002C19.7 6.56368 19.4472 5.95323 18.9971 5.50314C18.547 5.05305 17.9365 4.8002 17.3 4.8002ZM17.3 9.0002C17.3 9.23658 17.2535 9.47064 17.163 9.68903C17.0725 9.90741 16.94 10.1058 16.7728 10.273C16.6057 10.4401 16.4072 10.5727 16.1888 10.6632C15.9705 10.7536 15.7364 10.8002 15.5 10.8002C15.2636 10.8002 15.0296 10.7536 14.8112 10.6632C14.5928 10.5727 14.3944 10.4401 14.2272 10.273C14.0601 10.1058 13.9275 9.90741 13.837 9.68903C13.7466 9.47064 13.7 9.23658 13.7 9.0002C13.7 8.52281 13.8897 8.06497 14.2272 7.7274C14.5648 7.38984 15.0226 7.2002 15.5 7.2002C15.9774 7.2002 16.4352 7.38984 16.7728 7.7274C17.1104 8.06497 17.3 8.52281 17.3 9.0002ZM16.1 9.0002C16.1 8.84107 16.0368 8.68845 15.9243 8.57593C15.8118 8.46341 15.6591 8.4002 15.5 8.4002C15.3409 8.4002 15.1883 8.46341 15.0757 8.57593C14.9632 8.68845 14.9 8.84107 14.9 9.0002C14.9 9.15933 14.9632 9.31194 15.0757 9.42446C15.1883 9.53698 15.3409 9.6002 15.5 9.6002C15.6591 9.6002 15.8118 9.53698 15.9243 9.42446C16.0368 9.31194 16.1 9.15933 16.1 9.0002ZM6.48561 18.8714C6.85397 19.087 7.27318 19.2005 7.70001 19.2002H17.3C17.744 19.2002 18.158 19.0802 18.5144 18.8714L12.92 13.3754C12.8079 13.2655 12.6571 13.2039 12.5 13.2039C12.343 13.2039 12.1922 13.2655 12.08 13.3754L6.48561 18.8714Z"
        fill="#0377A6" />
</svg>
