<svg width="116" height="202" viewBox="0 0 116 202" fill="none" xmlns="http://www.w3.org/2000/svg">
<path d="M110.487 0.972778H8.58342C6.12299 0.972778 4.12842 2.96735 4.12842 5.42778V196.227C4.12842 198.688 6.12299 200.682 8.58342 200.682H110.487C112.948 200.682 114.942 198.688 114.942 196.227V5.42778C114.942 2.96735 112.948 0.972778 110.487 0.972778Z" fill="white" stroke="white" stroke-linecap="round" stroke-linejoin="round"/>
<path d="M106.97 0.972778H5.06584C2.60541 0.972778 0.61084 2.96735 0.61084 5.42778V196.227C0.61084 198.688 2.60541 200.682 5.06584 200.682H106.97C109.43 200.682 111.425 198.688 111.425 196.227V5.42778C111.425 2.96735 109.43 0.972778 106.97 0.972778Z" fill="#263238"/>
<mask id="mask0_696_10155" style="mask-type:luminance" maskUnits="userSpaceOnUse" x="0" y="0" width="112" height="201">
<path d="M106.97 0.972778H5.06584C2.60541 0.972778 0.61084 2.96735 0.61084 5.42778V196.227C0.61084 198.688 2.60541 200.682 5.06584 200.682H106.97C109.43 200.682 111.425 198.688 111.425 196.227V5.42778C111.425 2.96735 109.43 0.972778 106.97 0.972778Z" fill="white"/>
</mask>
<g mask="url(#mask0_696_10155)">
<path d="M111.425 76.3315L13.9824 200.689H106.976C108.157 200.687 109.288 200.217 110.122 199.382C110.956 198.546 111.425 197.414 111.425 196.234V76.3315Z" fill="#049DBF"/>
<path opacity="0.5" d="M111.425 76.3315L13.9824 200.689H106.976C108.157 200.687 109.288 200.217 110.122 199.382C110.956 198.546 111.425 197.414 111.425 196.234V76.3315Z" fill="#263238"/>
</g>
<path d="M106.97 0.972778H5.06584C2.60541 0.972778 0.61084 2.96735 0.61084 5.42778V196.227C0.61084 198.688 2.60541 200.682 5.06584 200.682H106.97C109.43 200.682 111.425 198.688 111.425 196.227V5.42778C111.425 2.96735 109.43 0.972778 106.97 0.972778Z" stroke="white" stroke-linecap="round" stroke-linejoin="round"/>
<path d="M63.7003 12.9056H49.9063C49.53 12.9056 49.169 12.7561 48.9029 12.49C48.6368 12.2239 48.4873 11.863 48.4873 11.4866C48.4873 11.3006 48.5241 11.1164 48.5954 10.9446C48.6668 10.7728 48.7715 10.6168 48.9033 10.4856C49.0352 10.3543 49.1917 10.2504 49.3638 10.1798C49.5359 10.1093 49.7203 10.0734 49.9063 10.0742H63.7003C64.0749 10.0742 64.4342 10.223 64.699 10.4879C64.9639 10.7528 65.1127 11.112 65.1127 11.4866C65.1136 11.6727 65.0777 11.857 65.0071 12.0292C64.9365 12.2013 64.8326 12.3578 64.7014 12.4896C64.5701 12.6215 64.4141 12.7261 64.2423 12.7975C64.0705 12.8689 63.8863 12.9056 63.7003 12.9056Z" fill="white" stroke="white" stroke-linecap="round" stroke-linejoin="round"/>
<path d="M104.422 182.836H7.6001V13.0706H30.5483L33.1289 15.209C34.0295 15.959 35.1644 16.37 36.3365 16.3706H76.8275C78.043 16.3656 79.2155 15.9201 80.1275 15.1166L82.4639 13.0706H104.422V182.836Z" fill="white" stroke="white" stroke-linecap="round" stroke-linejoin="round"/>
<path d="M25.7769 146.232H86.2593" stroke="#263238" stroke-linecap="round" stroke-linejoin="round"/>
<path d="M25.7769 154.192H86.2593" stroke="#263238" stroke-linecap="round" stroke-linejoin="round"/>
<path d="M25.7769 162.151H86.2593" stroke="#263238" stroke-linecap="round" stroke-linejoin="round"/>
<path d="M31.36 72.332C27.5589 77.8394 25.713 84.4618 26.1172 91.1415C26.5214 97.8211 29.1523 104.173 33.5898 109.181C38.0273 114.19 44.0154 117.568 50.5976 118.774C57.1798 119.981 63.9764 118.946 69.9019 115.837C75.8274 112.727 80.5399 107.722 83.2867 101.62C86.0336 95.5175 86.6563 88.6709 85.0555 82.1734C83.4546 75.6759 79.7226 69.9022 74.4553 65.7746C69.1881 61.647 62.6896 59.4035 55.9978 59.4026C54.1628 59.4027 52.3316 59.5684 50.5264 59.8976" stroke="#263238" stroke-linecap="round" stroke-linejoin="round"/>
<path d="M36.462 66.6758C35.4564 67.5461 34.5084 68.4809 33.624 69.4742" stroke="#263238" stroke-linecap="round" stroke-linejoin="round"/>
<path d="M79.384 99.2912C84.8803 86.3867 78.8747 71.4698 65.9702 65.9736C53.0656 60.4773 38.1488 66.4829 32.6526 79.3874C27.1563 92.292 33.1619 107.209 46.0664 112.705C58.971 118.201 73.8878 112.196 79.384 99.2912Z" fill="#049DBF"/>
<path d="M44.2896 86.7002L53.9256 97.6496L69.6864 75.3218" stroke="white" stroke-width="6" stroke-linecap="round" stroke-linejoin="round"/>
<path d="M80.1539 15.1166C79.2419 15.9201 78.0694 16.3656 76.8539 16.3706H36.3497C35.1776 16.37 34.0427 15.959 33.1421 15.209L30.5615 13.0706H7.6001V30.4352H104.422V13.0706H82.4903L80.1539 15.1166Z" fill="#049DBF" stroke="white" stroke-linecap="round" stroke-linejoin="round"/>
<path d="M59.1134 188.07C59.1147 187.633 58.9863 187.206 58.7446 186.842C58.5029 186.479 58.1587 186.195 57.7556 186.028C57.3526 185.86 56.9088 185.816 56.4805 185.901C56.0523 185.986 55.6589 186.196 55.3502 186.504C55.0415 186.813 54.8315 187.206 54.7466 187.635C54.6618 188.063 54.706 188.507 54.8736 188.91C55.0413 189.313 55.3249 189.657 55.6884 189.899C56.0519 190.14 56.479 190.269 56.9156 190.267C57.4979 190.266 58.0559 190.034 58.4677 189.622C58.8795 189.21 59.1116 188.652 59.1134 188.07Z" fill="white" stroke="white" stroke-linecap="round" stroke-linejoin="round"/>
</svg>
