<svg width="16" height="17" viewBox="0 0 16 17" fill="none" xmlns="http://www.w3.org/2000/svg">
<path d="M10.6667 7.51996C10.5726 7.42697 10.4456 7.37483 10.3133 7.37483C10.181 7.37483 10.0541 7.42697 9.96 7.51996L7.06 10.42L6 9.35996C5.90591 9.26697 5.77895 9.21482 5.64667 9.21482C5.51438 9.21482 5.38743 9.26697 5.29333 9.35996C5.1 9.55329 5.1 9.87329 5.29333 10.0666L6.58667 11.36C6.84667 11.62 7.26667 11.62 7.52667 11.36L10.66 8.22663C10.86 8.03329 10.86 7.71329 10.6667 7.51996ZM12.6667 2.49996H12V1.83329C12 1.46663 11.7 1.16663 11.3333 1.16663C10.9667 1.16663 10.6667 1.46663 10.6667 1.83329V2.49996H5.33333V1.83329C5.33333 1.46663 5.03333 1.16663 4.66667 1.16663C4.3 1.16663 4 1.46663 4 1.83329V2.49996H3.33333C2.59333 2.49996 2.00667 3.09996 2.00667 3.83329L2 13.1666C2 13.5202 2.14048 13.8594 2.39052 14.1094C2.64057 14.3595 2.97971 14.5 3.33333 14.5H12.6667C13.4 14.5 14 13.9 14 13.1666V3.83329C14 3.09996 13.4 2.49996 12.6667 2.49996ZM12 13.1666H4C3.63333 13.1666 3.33333 12.8666 3.33333 12.5V5.83329H12.6667V12.5C12.6667 12.8666 12.3667 13.1666 12 13.1666Z" fill="#15A042"/>
</svg>
