<svg width="7" height="15" viewBox="0 0 7 15" fill="none" xmlns="http://www.w3.org/2000/svg">
<path d="M5.82992 14.5C5.68052 14.5005 5.53291 14.4676 5.39794 14.4035C5.26296 14.3395 5.14404 14.2461 5.04992 14.13L0.21992 8.13003C0.0728379 7.9511 -0.00756836 7.72666 -0.00756836 7.49503C-0.00756836 7.26341 0.0728379 7.03896 0.21992 6.86003L5.21992 0.860032C5.38966 0.655815 5.63357 0.527391 5.898 0.503011C6.16242 0.478631 6.4257 0.560293 6.62992 0.730032C6.83414 0.89977 6.96256 1.14368 6.98694 1.40811C7.01132 1.67253 6.92966 1.93581 6.75992 2.14003L2.28992 7.50003L6.60992 12.86C6.7322 13.0068 6.80988 13.1856 6.83376 13.3751C6.85764 13.5647 6.82672 13.7571 6.74467 13.9296C6.66261 14.1021 6.53285 14.2475 6.37074 14.3486C6.20863 14.4497 6.02095 14.5023 5.82992 14.5Z" fill="#049DBF"/>
</svg>
