<svg width="20" height="19" viewBox="0 0 20 19" fill="none" xmlns="http://www.w3.org/2000/svg">
<path d="M17 17.3335H3C2.46957 17.3335 1.96086 17.1228 1.58579 16.7477C1.21071 16.3726 1 15.8639 1 15.3335V6.3335C1 5.80306 1.21071 5.29436 1.58579 4.91928C1.96086 4.54421 2.46957 4.3335 3 4.3335H17C17.5304 4.3335 18.0391 4.54421 18.4142 4.91928C18.7893 5.29436 19 5.80306 19 6.3335V15.3335C19 15.8639 18.7893 16.3726 18.4142 16.7477C18.0391 17.1228 17.5304 17.3335 17 17.3335Z" stroke="#049DBF" stroke-width="1.5"/>
<path d="M14.5 11.3335C14.3674 11.3335 14.2402 11.2808 14.1464 11.187C14.0527 11.0933 14 10.9661 14 10.8335C14 10.7009 14.0527 10.5737 14.1464 10.4799C14.2402 10.3862 14.3674 10.3335 14.5 10.3335C14.6326 10.3335 14.7598 10.3862 14.8536 10.4799C14.9473 10.5737 15 10.7009 15 10.8335C15 10.9661 14.9473 11.0933 14.8536 11.187C14.7598 11.2808 14.6326 11.3335 14.5 11.3335Z" fill="#049DBF" stroke="#049DBF" stroke-width="1.5" stroke-linecap="round" stroke-linejoin="round"/>
<path d="M16 4.33346V2.93646C15.9999 2.62996 15.9294 2.32758 15.7939 2.05267C15.6583 1.77777 15.4614 1.53768 15.2184 1.35097C14.9753 1.16425 14.6926 1.0359 14.3921 0.975814C14.0915 0.915733 13.7812 0.925532 13.485 1.00446L2.485 3.93746C2.05905 4.05096 1.68254 4.30202 1.41399 4.65158C1.14544 5.00115 0.999902 5.42964 1 5.87045V6.33346" stroke="#049DBF" stroke-width="1.5"/>
</svg>
