<svg width="33" height="32" viewBox="0 0 33 32" fill="none" xmlns="http://www.w3.org/2000/svg">
<path fill-rule="evenodd" clip-rule="evenodd" d="M9.83325 16V21.3333H15.1666V16H9.83325ZM13.8333 20V17.3333H11.1666V20H13.8333Z" fill="#0377A6"/>
<path fill-rule="evenodd" clip-rule="evenodd" d="M13.1667 4C12.3411 3.9998 11.5358 4.25503 10.861 4.73067C10.1863 5.20632 9.67524 5.87908 9.398 6.65667H4.5V8.31067L7.16667 10.3307V26.6667H5.16667C4.98986 26.6667 4.82029 26.7369 4.69526 26.8619C4.57024 26.987 4.5 27.1565 4.5 27.3333C4.5 27.5101 4.57024 27.6797 4.69526 27.8047C4.82029 27.9298 4.98986 28 5.16667 28H7.16667V28.01H25.8333V28H27.8333C28.0101 28 28.1797 27.9298 28.3047 27.8047C28.4298 27.6797 28.5 27.5101 28.5 27.3333C28.5 27.1565 28.4298 26.987 28.3047 26.8619C28.1797 26.7369 28.0101 26.6667 27.8333 26.6667H25.8333V10.3547L28.8333 8.33467V6.656H16.9353C16.658 5.87854 16.1469 5.20592 15.4722 4.7304C14.7974 4.25488 13.9921 3.99975 13.1667 4ZM16.9393 9.33333C17.0903 8.90502 17.1671 8.45413 17.1667 8V7.99H26.958L24.9633 9.33333H16.9393ZM16.148 10.6667C15.7728 11.0861 15.3133 11.4217 14.7996 11.6515C14.2859 11.8812 13.7294 12 13.1667 12C12.6039 12 12.0475 11.8812 11.5337 11.6515C11.02 11.4217 10.5605 11.0861 10.1853 10.6667H8.5V26.6667H16.5V16H23.1667V26.6667H24.5V10.6667H16.148ZM9.16667 8C9.16667 8.46733 9.24667 8.916 9.394 9.33333H8.05733L6.284 7.99H9.16667V8ZM13.8333 7.33333V6H12.5V7.33333H11.1667V8.66667H12.5V10H13.8333V8.66667H15.1667V7.33333H13.8333ZM21.8333 17.3333V26.6667H17.8333V17.3333H21.8333Z" fill="#0377A6"/>
</svg>
