<svg width="13" height="15" viewBox="0 0 13 15" fill="none" xmlns="http://www.w3.org/2000/svg">
<path d="M9.08208 13.1259L10.0794 12.1153L8.46141 10.4973L7.45141 11.4946C7.21897 11.7275 7.10275 11.9995 7.10275 12.3106C7.10275 12.6217 7.21897 12.8935 7.45141 13.1259C7.68386 13.3584 7.95564 13.4746 8.26675 13.4746C8.57786 13.4746 8.84964 13.3584 9.08208 13.1259ZM10.5387 11.6566L11.5487 10.6593C11.7812 10.4268 11.8954 10.155 11.8914 9.84392C11.8874 9.53281 11.769 9.26081 11.5361 9.02792C11.3036 8.80436 11.0341 8.69036 10.7274 8.68592C10.4207 8.68147 10.151 8.79547 9.91808 9.02792L8.92075 10.0386L10.5387 11.6566ZM9.54541 13.6013C9.18541 13.9613 8.75719 14.139 8.26075 14.1346C7.76386 14.1301 7.33564 13.9524 6.97608 13.6013C6.62453 13.2413 6.44675 12.813 6.44275 12.3166C6.43875 11.8201 6.61653 11.3919 6.97608 11.0319L9.45541 8.55192C9.80653 8.20081 10.2347 8.02525 10.7401 8.02525C11.245 8.02525 11.6732 8.20081 12.0247 8.55192C12.3847 8.91192 12.5647 9.34036 12.5647 9.83725C12.5647 10.3341 12.3847 10.7624 12.0247 11.1219L9.54541 13.6013ZM1.24408 12.3333C0.945415 12.3333 0.691193 12.2284 0.481415 12.0186C0.271637 11.8088 0.166748 11.5548 0.166748 11.2566V2.74325C0.166748 2.44547 0.271637 2.19147 0.481415 1.98125C0.691193 1.77147 0.945415 1.66659 1.24408 1.66659H4.37741C4.31653 1.32614 4.39786 1.01881 4.62141 0.744585C4.84453 0.470363 5.13741 0.333252 5.50008 0.333252C5.87119 0.333252 6.16853 0.470363 6.39208 0.744585C6.61564 1.01881 6.69275 1.32614 6.62341 1.66659H9.75675C10.0545 1.66659 10.3085 1.77147 10.5187 1.98125C10.7285 2.19103 10.8334 2.44525 10.8334 2.74392V6.19859C10.7223 6.1857 10.6112 6.18347 10.5001 6.19192C10.389 6.20036 10.2779 6.21281 10.1667 6.22925V2.74392C10.1667 2.62392 10.1283 2.52547 10.0514 2.44859C9.97453 2.3717 9.8763 2.33325 9.75675 2.33325H1.24341C1.12386 2.33325 1.02564 2.3717 0.948748 2.44859C0.871859 2.52547 0.833415 2.62392 0.833415 2.74392V11.2566C0.833415 11.3761 0.871859 11.4744 0.948748 11.5513C1.02564 11.6281 1.12408 11.6666 1.24408 11.6666H4.66541C4.64053 11.7777 4.62386 11.8888 4.61541 11.9999C4.60697 12.111 4.60919 12.2221 4.62208 12.3333H1.24408ZM5.50008 1.96125C5.64453 1.96125 5.76408 1.91414 5.85875 1.81992C5.95341 1.7257 6.00053 1.60614 6.00008 1.46125C5.99964 1.31636 5.9523 1.19703 5.85808 1.10325C5.76386 1.00947 5.64453 0.962141 5.50008 0.961252C5.35564 0.960363 5.2363 1.0077 5.14208 1.10325C5.04786 1.19881 5.00053 1.31814 5.00008 1.46125C4.99964 1.60436 5.04697 1.72392 5.14208 1.81992C5.23719 1.91592 5.35653 1.96303 5.50008 1.96125ZM2.50008 4.82059V4.15392H8.50008V4.82059H2.50008ZM2.50008 7.33325V6.66659H8.50008V6.93859C8.43697 6.9857 8.37875 7.03236 8.32541 7.07859C8.27208 7.12481 8.21364 7.1797 8.15008 7.24325L8.06075 7.33325H2.50008ZM2.50008 9.84659V9.17992H6.21408L6.02541 9.36792C5.94541 9.44792 5.86697 9.5277 5.79008 9.60725C5.71364 9.68592 5.63919 9.76547 5.56675 9.84592L2.50008 9.84659Z" fill="#049DBF"/>
</svg>
