<svg width="13" height="13" viewBox="0 0 13 13" fill="none" xmlns="http://www.w3.org/2000/svg">
<path d="M5 0.5C4.86739 0.5 4.74021 0.552679 4.64645 0.646447C4.55268 0.740215 4.5 0.867392 4.5 1C4.5 1.13261 4.55268 1.25979 4.64645 1.35355C4.74021 1.44732 4.86739 1.5 5 1.5H6V11.5H5C4.86739 11.5 4.74021 11.5527 4.64645 11.6464C4.55268 11.7402 4.5 11.8674 4.5 12C4.5 12.1326 4.55268 12.2598 4.64645 12.3536C4.74021 12.4473 4.86739 12.5 5 12.5H8C8.13261 12.5 8.25979 12.4473 8.35355 12.3536C8.44732 12.2598 8.5 12.1326 8.5 12C8.5 11.8674 8.44732 11.7402 8.35355 11.6464C8.25979 11.5527 8.13261 11.5 8 11.5H7V1.5H8C8.13261 1.5 8.25979 1.44732 8.35355 1.35355C8.44732 1.25979 8.5 1.13261 8.5 1C8.5 0.867392 8.44732 0.740215 8.35355 0.646447C8.25979 0.552679 8.13261 0.5 8 0.5H5ZM2.5 2.5H5V3.5H2.5C2.23478 3.5 1.98043 3.60536 1.79289 3.79289C1.60536 3.98043 1.5 4.23478 1.5 4.5V8.497C1.5 8.76222 1.60536 9.01657 1.79289 9.20411C1.98043 9.39164 2.23478 9.497 2.5 9.497H5V10.497H2.5C1.96957 10.497 1.46086 10.2863 1.08579 9.91121C0.710714 9.53614 0.5 9.02743 0.5 8.497V4.5C0.5 3.96957 0.710714 3.46086 1.08579 3.08579C1.46086 2.71071 1.96957 2.5 2.5 2.5ZM10.5 9.497H8V10.497H10.5C11.0304 10.497 11.5391 10.2863 11.9142 9.91121C12.2893 9.53614 12.5 9.02743 12.5 8.497V4.5C12.5 3.96957 12.2893 3.46086 11.9142 3.08579C11.5391 2.71071 11.0304 2.5 10.5 2.5H8V3.5H10.5C10.7652 3.5 11.0196 3.60536 11.2071 3.79289C11.3946 3.98043 11.5 4.23478 11.5 4.5V8.497C11.5 8.76222 11.3946 9.01657 11.2071 9.20411C11.0196 9.39164 10.7652 9.497 10.5 9.497Z" fill="#049DBF"/>
</svg>
