<svg width="17" height="17" viewBox="0 0 17 17" fill="none" xmlns="http://www.w3.org/2000/svg">
<path fill-rule="evenodd" clip-rule="evenodd" d="M3 0.5C3 0.367392 3.05268 0.240215 3.14645 0.146447C3.24021 0.0526785 3.36739 0 3.5 0C3.63261 0 3.75979 0.0526785 3.85355 0.146447C3.94732 0.240215 4 0.367392 4 0.5V3C4 3.13261 4.05268 3.25979 4.14645 3.35355C4.24021 3.44732 4.36739 3.5 4.5 3.5C4.63261 3.5 4.75979 3.44732 4.85355 3.35355C4.94732 3.25979 5 3.13261 5 3V1.5H10V0.5C10 0.367392 10.0527 0.240215 10.1464 0.146447C10.2402 0.0526785 10.3674 0 10.5 0C10.6326 0 10.7598 0.0526785 10.8536 0.146447C10.9473 0.240215 11 0.367392 11 0.5V3C11 3.13261 11.0527 3.25979 11.1464 3.35355C11.2402 3.44732 11.3674 3.5 11.5 3.5C11.6326 3.5 11.7598 3.44732 11.8536 3.35355C11.9473 3.25979 12 3.13261 12 3V1.5H13.5C13.8978 1.5 14.2794 1.65804 14.5607 1.93934C14.842 2.22064 15 2.60218 15 3V11.035C15.8758 11.1616 16.6711 11.6151 17.226 12.3044C17.7809 12.9937 18.0541 13.8675 17.9908 14.7501C17.9274 15.6327 17.5321 16.4586 16.8845 17.0616C16.2368 17.6645 15.3849 17.9998 14.5 18C13.9357 18.0005 13.3796 17.8643 12.8794 17.603C12.3792 17.3418 11.9496 16.9634 11.6275 16.5H1.5C1.10218 16.5 0.720644 16.342 0.43934 16.0607C0.158035 15.7794 0 15.3978 0 15V3C0 2.60218 0.158035 2.22064 0.43934 1.93934C0.720644 1.65804 1.10218 1.5 1.5 1.5H3V0.5ZM11 14.5C10.9998 13.6582 11.303 12.8446 11.854 12.2082C12.4049 11.5718 13.1668 11.1553 14 11.035V6H1V15C1 15.1326 1.05268 15.2598 1.14645 15.3536C1.24021 15.4473 1.36739 15.5 1.5 15.5H11.145C11.0486 15.1754 10.9997 14.8386 11 14.5ZM17 14.5C17 15.163 16.7366 15.7989 16.2678 16.2678C15.7989 16.7366 15.163 17 14.5 17C13.837 17 13.2011 16.7366 12.7322 16.2678C12.2634 15.7989 12 15.163 12 14.5C12 13.837 12.2634 13.2011 12.7322 12.7322C13.2011 12.2634 13.837 12 14.5 12C15.163 12 15.7989 12.2634 16.2678 12.7322C16.7366 13.2011 17 13.837 17 14.5Z" fill="#A4A7AE"/>
</svg>
