<svg width="20" height="20" viewBox="0 0 20 20" fill="none" xmlns="http://www.w3.org/2000/svg">
<path d="M7.08335 11.6668C7.35962 11.6668 7.62457 11.5571 7.81992 11.3617C8.01527 11.1664 8.12502 10.9014 8.12502 10.6252C8.12502 10.3489 8.01527 10.0839 7.81992 9.88859C7.62457 9.69324 7.35962 9.5835 7.08335 9.5835C6.80709 9.5835 6.54213 9.69324 6.34678 9.88859C6.15143 10.0839 6.04169 10.3489 6.04169 10.6252C6.04169 10.9014 6.15143 11.1664 6.34678 11.3617C6.54213 11.5571 6.80709 11.6668 7.08335 11.6668ZM7.08335 14.5835C7.35962 14.5835 7.62457 14.4738 7.81992 14.2784C8.01527 14.083 8.12502 13.8181 8.12502 13.5418C8.12502 13.2656 8.01527 13.0006 7.81992 12.8053C7.62457 12.6099 7.35962 12.5002 7.08335 12.5002C6.80709 12.5002 6.54213 12.6099 6.34678 12.8053C6.15143 13.0006 6.04169 13.2656 6.04169 13.5418C6.04169 13.8181 6.15143 14.083 6.34678 14.2784C6.54213 14.4738 6.80709 14.5835 7.08335 14.5835ZM11.0417 10.6252C11.0417 10.9014 10.9319 11.1664 10.7366 11.3617C10.5412 11.5571 10.2763 11.6668 10 11.6668C9.72375 11.6668 9.4588 11.5571 9.26345 11.3617C9.0681 11.1664 8.95835 10.9014 8.95835 10.6252C8.95835 10.3489 9.0681 10.0839 9.26345 9.88859C9.4588 9.69324 9.72375 9.5835 10 9.5835C10.2763 9.5835 10.5412 9.69324 10.7366 9.88859C10.9319 10.0839 11.0417 10.3489 11.0417 10.6252ZM10 14.5835C10.2763 14.5835 10.5412 14.4738 10.7366 14.2784C10.9319 14.083 11.0417 13.8181 11.0417 13.5418C11.0417 13.2656 10.9319 13.0006 10.7366 12.8053C10.5412 12.6099 10.2763 12.5002 10 12.5002C9.72375 12.5002 9.4588 12.6099 9.26345 12.8053C9.0681 13.0006 8.95835 13.2656 8.95835 13.5418C8.95835 13.8181 9.0681 14.083 9.26345 14.2784C9.4588 14.4738 9.72375 14.5835 10 14.5835ZM13.9584 10.6252C13.9584 10.9014 13.8486 11.1664 13.6533 11.3617C13.4579 11.5571 13.193 11.6668 12.9167 11.6668C12.6404 11.6668 12.3755 11.5571 12.1801 11.3617C11.9848 11.1664 11.875 10.9014 11.875 10.6252C11.875 10.3489 11.9848 10.0839 12.1801 9.88859C12.3755 9.69324 12.6404 9.5835 12.9167 9.5835C13.193 9.5835 13.4579 9.69324 13.6533 9.88859C13.8486 10.0839 13.9584 10.3489 13.9584 10.6252Z" fill="#0377A6"/>
<path fill-rule="evenodd" clip-rule="evenodd" d="M6.66669 2.7085C6.83245 2.7085 6.99142 2.77434 7.10863 2.89155C7.22584 3.00876 7.29169 3.16774 7.29169 3.3335V3.9585H12.7084V3.3335C12.7084 3.16774 12.7742 3.00876 12.8914 2.89155C13.0086 2.77434 13.1676 2.7085 13.3334 2.7085C13.4991 2.7085 13.6581 2.77434 13.7753 2.89155C13.8925 3.00876 13.9584 3.16774 13.9584 3.3335V3.96516C14.085 3.9685 14.2031 3.97461 14.3125 3.9835C14.6292 4.0085 14.9259 4.06516 15.2067 4.2085C15.638 4.42822 15.9886 4.77887 16.2084 5.21016C16.3517 5.491 16.4084 5.78766 16.4334 6.10433C16.4584 6.4085 16.4584 6.77933 16.4584 7.22516V13.6085C16.4584 14.0543 16.4584 14.4252 16.4334 14.7293C16.4084 15.046 16.3517 15.3427 16.2084 15.6235C15.9888 16.0547 15.6385 16.4053 15.2075 16.6252C14.9259 16.7685 14.6292 16.8252 14.3125 16.8502C14.0084 16.8752 13.6375 16.8752 13.1925 16.8752H6.80835C6.36252 16.8752 5.99169 16.8752 5.68752 16.8502C5.37085 16.8252 5.07419 16.7685 4.79335 16.6252C4.36231 16.4059 4.0117 16.0558 3.79169 15.6252C3.64835 15.3435 3.59169 15.0468 3.56669 14.7302C3.54169 14.426 3.54169 14.0552 3.54169 13.6102V7.22516C3.54169 6.77933 3.54169 6.4085 3.56669 6.10433C3.59169 5.78766 3.64835 5.491 3.79169 5.21016C4.01141 4.77887 4.36206 4.42822 4.79335 4.2085C5.07419 4.06516 5.37085 4.0085 5.68752 3.9835C5.79696 3.97461 5.91502 3.9685 6.04169 3.96516V3.3335C6.04169 3.25142 6.05785 3.17015 6.08926 3.09432C6.12067 3.01849 6.16671 2.94959 6.22475 2.89155C6.28278 2.83352 6.35168 2.78748 6.42751 2.75607C6.50334 2.72466 6.58461 2.7085 6.66669 2.7085ZM6.04169 5.41683V5.21516C5.95741 5.21776 5.87322 5.22248 5.78919 5.22933C5.55002 5.2485 5.43585 5.2835 5.36085 5.32183C5.16453 5.42175 5.00494 5.58134 4.90502 5.77766C4.86669 5.85266 4.83169 5.96683 4.81252 6.206C4.79252 6.45266 4.79169 6.77266 4.79169 7.25016V7.7085H15.2084V7.25016C15.2084 6.7735 15.2084 6.45266 15.1875 6.206C15.1684 5.96683 15.1334 5.85266 15.095 5.77766C14.9951 5.58134 14.8355 5.42175 14.6392 5.32183C14.5642 5.2835 14.45 5.2485 14.21 5.22933C14.1263 5.22249 14.0423 5.21777 13.9584 5.21516V5.41683C13.9584 5.58259 13.8925 5.74156 13.7753 5.85877C13.6581 5.97598 13.4991 6.04183 13.3334 6.04183C13.1676 6.04183 13.0086 5.97598 12.8914 5.85877C12.7742 5.74156 12.7084 5.58259 12.7084 5.41683V5.2085H7.29169V5.41683C7.29169 5.58259 7.22584 5.74156 7.10863 5.85877C6.99142 5.97598 6.83245 6.04183 6.66669 6.04183C6.50093 6.04183 6.34196 5.97598 6.22475 5.85877C6.10754 5.74156 6.04169 5.58259 6.04169 5.41683ZM15.2084 8.54183H4.79169V13.5835C4.79169 14.0602 4.79169 14.381 4.81252 14.6268C4.83169 14.8668 4.86669 14.981 4.90502 15.056C5.00502 15.2527 5.16419 15.4118 5.36085 15.5118C5.43585 15.5502 5.55002 15.5852 5.78919 15.6043C6.03585 15.6243 6.35585 15.6252 6.83335 15.6252H13.1667C13.6434 15.6252 13.9642 15.6252 14.21 15.6043C14.45 15.5852 14.5642 15.5502 14.6392 15.5118C14.8355 15.4119 14.9951 15.2523 15.095 15.056C15.1334 14.981 15.1684 14.8668 15.1875 14.6268C15.2075 14.381 15.2084 14.0602 15.2084 13.5835V8.54183Z" fill="#0377A6"/>
<path fill-rule="evenodd" clip-rule="evenodd" d="M8.125 6.4585C8.125 6.29274 8.19085 6.13376 8.30806 6.01655C8.42527 5.89934 8.58424 5.8335 8.75 5.8335H11.25C11.4158 5.8335 11.5747 5.89934 11.6919 6.01655C11.8092 6.13376 11.875 6.29274 11.875 6.4585C11.875 6.62426 11.8092 6.78323 11.6919 6.90044C11.5747 7.01765 11.4158 7.0835 11.25 7.0835H8.75C8.58424 7.0835 8.42527 7.01765 8.30806 6.90044C8.19085 6.78323 8.125 6.62426 8.125 6.4585Z" fill="#0377A6"/>
</svg>
