<svg width="25" height="24" viewBox="0 0 25 24" fill="none" xmlns="http://www.w3.org/2000/svg">
    <path
        d="M12.5 10.6667C13.9145 10.6667 15.271 10.1048 16.2712 9.10457C17.2714 8.10438 17.8333 6.74782 17.8333 5.33333C17.8333 3.91885 17.2714 2.56229 16.2712 1.5621C15.271 0.561903 13.9145 0 12.5 0C11.0855 0 9.72896 0.561903 8.72876 1.5621C7.72857 2.56229 7.16667 3.91885 7.16667 5.33333C7.16667 6.74782 7.72857 8.10438 8.72876 9.10457C9.72896 10.1048 11.0855 10.6667 12.5 10.6667ZM7.99333 13.2293L8.492 12.4973C9.7043 13.0482 11.0204 13.3332 12.352 13.3333H12.6493C13.7911 13.3331 14.9232 13.1235 15.9893 12.7147L16.34 13.2293C16.5027 13.4693 16.6667 13.936 16.776 14.5267C16.8827 15.096 16.912 15.636 16.892 15.9333C16.8842 16.0688 16.9023 16.2046 16.9453 16.3333H16.4413C16.2486 16.3336 16.0599 16.3887 15.8974 16.4924C15.735 16.5961 15.6054 16.744 15.524 16.9187L14.6027 18.892C14.5307 19.0464 14.4988 19.2165 14.51 19.3865C14.5212 19.5565 14.5751 19.721 14.6667 19.8646C14.7582 20.0083 14.8846 20.1266 15.0339 20.2085C15.1833 20.2904 15.351 20.3334 15.5213 20.3333H17.0333V18.3333H18.7V20.3333H20.1453C20.3157 20.3334 20.4833 20.2904 20.6327 20.2085C20.7821 20.1266 20.9084 20.0083 21 19.8646C21.0916 19.721 21.1455 19.5565 21.1566 19.3865C21.1678 19.2165 21.136 19.0464 21.064 18.892L20.144 16.9187C20.0624 16.7436 19.9324 16.5954 19.7694 16.4917C19.6064 16.388 19.4172 16.333 19.224 16.3333H18.8333C18.8624 16.2471 18.8803 16.1575 18.8867 16.0667C18.9213 15.5627 18.8707 14.8507 18.7427 14.16C18.6187 13.4907 18.3933 12.692 17.9933 12.104L17.928 12.008C17.9954 12.0028 18.063 12.0001 18.1307 12C18.9671 12 19.7953 12.1647 20.5681 12.4848C21.3409 12.8049 22.043 13.2741 22.6345 13.8655C23.2259 14.457 23.6951 15.1591 24.0152 15.9319C24.3353 16.7047 24.5 17.5329 24.5 18.3693V24H0.5V18.3693C0.5 15.0093 3.1 12.2573 6.39867 12.0173L6.34 12.104C5.552 13.2627 5.432 14.6987 5.52933 15.8507C5.56267 16.2467 5.62267 16.6373 5.70533 17.0053C5.37626 17.2978 5.15286 17.6906 5.06978 18.1229C4.98669 18.5552 5.04856 19.0028 5.2458 19.3964C5.44303 19.79 5.7646 20.1075 6.16065 20.2997C6.5567 20.4919 7.0051 20.548 7.43631 20.4594C7.86753 20.3708 8.25747 20.1425 8.54567 19.8097C8.83387 19.4769 9.00422 19.0584 9.03032 18.6189C9.05641 18.1795 8.93679 17.7437 8.69 17.3791C8.44321 17.0146 8.08303 16.7417 7.66533 16.6027C7.59595 16.2997 7.54783 15.9923 7.52133 15.6827C7.44133 14.7413 7.57467 13.844 7.99333 13.2293Z"
        fill="#0377A6" />
</svg>
