<svg width="24" height="25" viewBox="0 0 24 25" fill="none" xmlns="http://www.w3.org/2000/svg">
<g clip-path="url(#clip0_249_756)">
<path d="M12 11.0903C13.4145 11.0903 14.771 10.5283 15.7712 9.52815C16.7714 8.52796 17.3333 7.17141 17.3333 5.75692C17.3333 4.34243 16.7714 2.98587 15.7712 1.98568C14.771 0.985487 13.4145 0.423584 12 0.423584C10.5855 0.423584 9.22896 0.985487 8.22876 1.98568C7.22857 2.98587 6.66667 4.34243 6.66667 5.75692C6.66667 7.17141 7.22857 8.52796 8.22876 9.52815C9.22896 10.5283 10.5855 11.0903 12 11.0903ZM7.49333 13.6529L7.992 12.9209C9.2043 13.4717 10.5204 13.7568 11.852 13.7569H12.1493C13.2911 13.7567 14.4232 13.547 15.4893 13.1383L15.84 13.6529C16.0027 13.8929 16.1667 14.3596 16.276 14.9503C16.3827 15.5196 16.412 16.0596 16.392 16.3569C16.3842 16.4924 16.4023 16.6282 16.4453 16.7569H15.9413C15.7486 16.7571 15.5599 16.8123 15.3974 16.916C15.235 17.0197 15.1054 17.1675 15.024 17.3423L14.1027 19.3156C14.0307 19.47 13.9988 19.6401 14.01 19.8101C14.0212 19.9801 14.0751 20.1446 14.1667 20.2882C14.2582 20.4319 14.3846 20.5502 14.5339 20.6321C14.6833 20.714 14.851 20.7569 15.0213 20.7569H16.5333V18.7569H18.2V20.7569H19.6453C19.8157 20.7569 19.9833 20.714 20.1327 20.6321C20.2821 20.5502 20.4084 20.4319 20.5 20.2882C20.5916 20.1446 20.6455 19.9801 20.6566 19.8101C20.6678 19.6401 20.636 19.47 20.564 19.3156L19.644 17.3423C19.5624 17.1671 19.4324 17.019 19.2694 16.9153C19.1064 16.8116 18.9172 16.7566 18.724 16.7569H18.3333C18.3624 16.6707 18.3803 16.5811 18.3867 16.4903C18.4213 15.9863 18.3707 15.2743 18.2427 14.5836C18.1187 13.9143 17.8933 13.1156 17.4933 12.5276L17.428 12.4316C17.4954 12.4263 17.563 12.4237 17.6307 12.4236C18.4671 12.4236 19.2953 12.5883 20.0681 12.9084C20.8409 13.2285 21.543 13.6977 22.1345 14.2891C22.7259 14.8806 23.1951 15.5827 23.5152 16.3555C23.8353 17.1282 24 17.9565 24 18.7929V24.4236H0V18.7929C0 15.4329 2.6 12.6809 5.89867 12.4409L5.84 12.5276C5.052 13.6863 4.932 15.1223 5.02933 16.2743C5.06267 16.6702 5.12267 17.0609 5.20533 17.4289C4.87626 17.7213 4.65286 18.1142 4.56978 18.5465C4.48669 18.9788 4.54856 19.4264 4.7458 19.82C4.94303 20.2136 5.2646 20.5311 5.66065 20.7233C6.0567 20.9155 6.5051 20.9716 6.93631 20.883C7.36753 20.7944 7.75747 20.566 8.04567 20.2333C8.33387 19.9005 8.50422 19.4819 8.53032 19.0425C8.55641 18.603 8.43679 18.1673 8.19 17.8027C7.94321 17.4382 7.58303 17.1653 7.16533 17.0263C7.09595 16.7233 7.04783 16.4159 7.02133 16.1063C6.94133 15.1649 7.07467 14.2676 7.49333 13.6529Z" fill="#0377A6"/>
</g>
<defs>
<clipPath id="clip0_249_756">
<rect width="24" height="24" fill="white" transform="translate(0 0.423584)"/>
</clipPath>
</defs>
</svg>
