<svg width="13" height="14" viewBox="0 0 13 14" fill="none" xmlns="http://www.w3.org/2000/svg">
<g clip-path="url(#clip0_388_4066)">
<path d="M12.1404 10.7131L8.12507 4.02219V1.3125H8.53132C8.75476 1.3125 8.93757 1.12969 8.93757 0.90625C8.93757 0.682812 8.75476 0.5 8.53132 0.5H4.46882C4.24538 0.5 4.06257 0.682812 4.06257 0.90625C4.06257 1.12969 4.24538 1.3125 4.46882 1.3125H4.87507V4.02219L0.859694 10.7131C-0.0600559 12.2455 0.650069 13.5 2.43757 13.5H10.5626C12.3501 13.5 13.0602 12.2463 12.1404 10.7131ZM3.05994 8.625L5.68757 4.24563V1.3125H7.31257V4.24563L9.94019 8.625H3.05994Z" fill="#0377A6"/>
</g>
<defs>
<clipPath id="clip0_388_4066">
<rect width="13" height="13" fill="white" transform="translate(0 0.5)"/>
</clipPath>
</defs>
</svg>
