<svg width="16" height="16" viewBox="0 0 16 16" fill="none" xmlns="http://www.w3.org/2000/svg">
<g clip-path="url(#clip0_388_5825)">
<path d="M1.33398 15.6667H14.6673M5.76465 10C6.08112 10.3537 6.477 10.6272 6.91975 10.7982C7.3625 10.9691 7.83949 11.0326 8.31154 10.9834C8.78358 10.9341 9.23721 10.7736 9.63515 10.515C10.0331 10.2563 10.364 9.90699 10.6007 9.49561C10.8374 9.08423 10.9731 8.62256 10.9966 8.14854C11.0202 7.67452 10.931 7.20167 10.7363 6.76884C10.5416 6.33601 10.2469 5.95555 9.87661 5.65872C9.50629 5.36188 9.07082 5.15715 8.60598 5.06133M8.60598 5.06133L7.00065 6.66667L4.66732 4.33333L8.31398 0.686666C8.42604 0.57459 8.55907 0.485684 8.70549 0.425027C8.8519 0.364371 9.00883 0.333151 9.16732 0.333151C9.3258 0.333151 9.48273 0.364371 9.62915 0.425027C9.77557 0.485684 9.9086 0.57459 10.0207 0.686666L10.6473 1.31333C10.7594 1.42539 10.8483 1.55842 10.909 1.70484C10.9696 1.85125 11.0008 2.00818 11.0008 2.16667C11.0008 2.32515 10.9696 2.48208 10.909 2.6285C10.8483 2.77491 10.7594 2.90795 10.6473 3.02L10.1727 3.49467M8.60598 5.06133L10.1727 3.49467M3.41665 10C3.71345 10.678 4.15671 11.282 4.7146 11.7684C5.27249 12.2548 5.93116 12.6117 6.64332 12.8133M6.64332 12.8133C7.02733 12.5023 7.5065 12.3326 8.00065 12.3326C8.49481 12.3326 8.97397 12.5023 9.35798 12.8133M6.64332 12.8133C6.40341 13.0068 6.20827 13.2499 6.07132 13.526L5.66732 14.3333C5.66732 14.3333 5.00065 15.6667 3.66732 15.6667H12.334C11.0007 15.6667 10.334 14.3333 10.334 14.3333L9.92998 13.526C9.79303 13.2499 9.59789 13.0068 9.35798 12.8133M4.33398 6.33333L5.33398 7.33333M1.33398 9H7.33398M10.1727 3.49467C11.0869 3.93585 11.8453 4.64476 12.347 5.52722C12.8488 6.40968 13.0701 7.42392 12.9817 8.43519C12.8933 9.44646 12.4993 10.4069 11.852 11.1889C11.2048 11.9709 10.3349 12.5375 9.35798 12.8133M10.334 1L11.0673 0.266666" stroke="#049DBF"/>
</g>
<defs>
<clipPath id="clip0_388_5825">
<rect width="16" height="16" fill="white"/>
</clipPath>
</defs>
</svg>
