<svg width="13" height="26" viewBox="0 0 13 26" fill="none" xmlns="http://www.w3.org/2000/svg">
    <path
        d="M12.4598 21.0455L9.4349 13.981C9.13781 13.2896 8.89474 12.1085 8.89474 11.3558C8.89474 10.6032 9.35658 9.98742 9.92105 9.98742C10.4855 9.98742 10.9474 9.52468 10.9474 8.9611C10.9474 8.39753 10.3316 7.93479 9.57895 7.93479H3.42105C2.66842 7.93479 2.05263 8.39573 2.05263 8.9611C2.05263 9.52648 2.51447 9.98742 3.07895 9.98742C3.64342 9.98742 4.10526 10.6032 4.10526 11.3558C4.10526 12.1085 3.86219 13.2896 3.5651 13.9819L0.540167 21.0473C0.243075 21.7387 0 22.6138 0 22.9892C0 23.3646 0.307895 23.9822 0.684211 24.3576C1.06053 24.7331 1.98421 25.0419 2.73684 25.0419H10.2632C11.0149 25.0419 11.9377 24.7358 12.3158 24.3576C12.6939 23.9795 13 23.3655 13 22.9892C13 22.6129 12.7569 21.7378 12.4598 21.0473V21.0455ZM7.475 5.90916C7.475 6.16775 7.57772 6.41575 7.76057 6.59859C7.94342 6.78144 8.19141 6.88416 8.45 6.88416C8.70859 6.88416 8.95658 6.78144 9.13943 6.59859C9.32228 6.41575 9.425 6.16775 9.425 5.90916C9.42488 5.65058 9.32204 5.40263 9.13911 5.21987C8.95618 5.0371 8.70814 4.93449 8.44955 4.93461C8.19096 4.93473 7.94302 5.03757 7.76025 5.2205C7.57749 5.40344 7.47488 5.65058 7.475 5.90916ZM4.85069 6.05951C4.97008 6.05951 5.08457 6.01209 5.16899 5.92767C5.25341 5.84325 5.30083 5.72876 5.30083 5.60937C5.30083 5.48999 5.25341 5.37549 5.16899 5.29108C5.08457 5.20666 4.97008 5.15923 4.85069 5.15923C4.73131 5.15923 4.61681 5.20666 4.5324 5.29108C4.44798 5.37549 4.40055 5.48999 4.40055 5.60937C4.40055 5.72876 4.44798 5.84325 4.5324 5.92767C4.61681 6.01209 4.73131 6.05951 4.85069 6.05951ZM6.57652 3.80882C6.76959 3.81841 6.96259 3.78864 7.14379 3.72134C7.325 3.65403 7.49063 3.55059 7.63062 3.41729C7.77061 3.28399 7.88204 3.12363 7.95814 2.94594C8.03424 2.76824 8.07342 2.57694 8.0733 2.38363C8.07317 2.19033 8.03375 1.99907 7.95743 1.82148C7.8811 1.64388 7.76947 1.48366 7.62931 1.35054C7.48915 1.21742 7.32339 1.11418 7.1421 1.04711C6.96081 0.980029 6.76778 0.95051 6.57472 0.960342C6.2124 0.982902 5.87232 1.14279 5.62381 1.40743C5.37531 1.67206 5.23708 2.0215 5.23731 2.38453C5.23754 2.74755 5.37621 3.09682 5.62505 3.36114C5.87389 3.62545 6.21417 3.78492 6.57652 3.80702V3.80882Z"
        fill="#0377A6" />
</svg>
