<svg width="24" height="25" viewBox="0 0 24 25" fill="none" xmlns="http://www.w3.org/2000/svg">
<g clip-path="url(#clip0_249_823)">
<path d="M22.4129 19.2786L14.9999 6.92608V1.92358H15.7499C16.1624 1.92358 16.4999 1.58608 16.4999 1.17358C16.4999 0.761084 16.1624 0.423584 15.7499 0.423584H8.24988C7.83738 0.423584 7.49988 0.761084 7.49988 1.17358C7.49988 1.58608 7.83738 1.92358 8.24988 1.92358H8.99988V6.92608L1.58688 19.2786C-0.111117 22.1076 1.19988 24.4236 4.49988 24.4236H19.4999C22.7999 24.4236 24.1109 22.1091 22.4129 19.2786ZM5.64888 15.4236L10.4999 7.33858V1.92358H13.4999V7.33858L18.3509 15.4236H5.64888Z" fill="#0377A6"/>
</g>
<defs>
<clipPath id="clip0_249_823">
<rect width="24" height="24" fill="white" transform="translate(0 0.423584)"/>
</clipPath>
</defs>
</svg>
