<svg width="17" height="17" viewBox="0 0 17 17" fill="none" xmlns="http://www.w3.org/2000/svg">
<path d="M13 7C13 5.80653 12.5259 4.66193 11.682 3.81802C10.8381 2.97411 9.69347 2.5 8.5 2.5C7.30653 2.5 6.16193 2.97411 5.31802 3.81802C4.47411 4.66193 4 5.80653 4 7C4 8.846 5.477 11.252 8.5 14.134C11.523 11.252 13 8.846 13 7ZM8.5 15.5C4.833 12.167 3 9.333 3 7C3 5.54131 3.57946 4.14236 4.61091 3.11091C5.64236 2.07946 7.04131 1.5 8.5 1.5C9.95869 1.5 11.3576 2.07946 12.3891 3.11091C13.4205 4.14236 14 5.54131 14 7C14 9.333 12.167 12.167 8.5 15.5Z" fill="#D53B36"/>
<path d="M8.5 8.5C8.89782 8.5 9.27936 8.34196 9.56066 8.06066C9.84196 7.77936 10 7.39782 10 7C10 6.60218 9.84196 6.22064 9.56066 5.93934C9.27936 5.65804 8.89782 5.5 8.5 5.5C8.10218 5.5 7.72064 5.65804 7.43934 5.93934C7.15804 6.22064 7 6.60218 7 7C7 7.39782 7.15804 7.77936 7.43934 8.06066C7.72064 8.34196 8.10218 8.5 8.5 8.5ZM8.5 9.5C7.83696 9.5 7.20107 9.23661 6.73223 8.76777C6.26339 8.29893 6 7.66304 6 7C6 6.33696 6.26339 5.70107 6.73223 5.23223C7.20107 4.76339 7.83696 4.5 8.5 4.5C9.16304 4.5 9.79893 4.76339 10.2678 5.23223C10.7366 5.70107 11 6.33696 11 7C11 7.66304 10.7366 8.29893 10.2678 8.76777C9.79893 9.23661 9.16304 9.5 8.5 9.5Z" fill="#D53B36"/>
</svg>
