<svg width="24" height="25" viewBox="0 0 24 25" fill="none" xmlns="http://www.w3.org/2000/svg">
<path d="M21.75 21.4236V12.9791C21.246 13.1673 20.7146 13.2715 20.1769 13.2875C20.1216 13.2875 20.0691 13.2898 20.0175 13.2898C19.0766 13.2924 18.1537 13.0327 17.3522 12.5398C16.5508 13.0326 15.6281 13.2923 14.6873 13.2898C13.7505 13.2911 12.8323 13.0279 12.0384 12.5305C11.2335 13.0298 10.3044 13.2929 9.35719 13.2898C8.4139 13.2911 7.4897 13.0241 6.69234 12.5201C5.89499 13.0241 4.97078 13.2911 4.0275 13.2898C3.97641 13.2898 3.92484 13.2898 3.86953 13.2875H3.86672C3.31332 13.271 2.7667 13.161 2.25 12.9622V21.4236H0.75V22.9236H23.25V21.4236H21.75ZM10.5 18.4236H6V14.8611C6 14.8114 6.01975 14.7637 6.05492 14.7285C6.09008 14.6933 6.13777 14.6736 6.1875 14.6736H10.3125C10.3622 14.6736 10.4099 14.6933 10.4451 14.7285C10.4802 14.7637 10.5 14.8114 10.5 14.8611V18.4236ZM18 21.4236H14.25V14.8611C14.25 14.8114 14.2698 14.7637 14.3049 14.7285C14.3401 14.6933 14.3878 14.6736 14.4375 14.6736H17.8125C17.8622 14.6736 17.9099 14.6933 17.9451 14.7285C17.9802 14.7637 18 14.8114 18 14.8611V21.4236ZM23.0892 8.40546L20.9011 3.42358C20.25 1.92358 20.25 1.92358 18.75 1.92358H5.25C3.75 1.92358 3.75 1.92358 3.09656 3.42358L0.908437 8.40546C0.486562 9.3153 1.04391 10.2495 1.04438 10.25L1.06359 10.2809C1.08328 10.3119 1.11656 10.363 1.13953 10.392C1.14422 10.3981 1.14844 10.4047 1.15266 10.4108L1.39828 10.7103L1.64719 10.9512L1.66688 10.9681C1.80527 11.0862 1.95328 11.1925 2.10938 11.2859V11.2883C2.61952 11.5973 3.20073 11.7696 3.79688 11.7884H3.91266C4.81466 11.7901 5.68379 11.4499 6.345 10.8364C6.44051 10.7479 6.53081 10.654 6.61547 10.5551C6.70043 10.6539 6.79088 10.7478 6.88641 10.8364C7.54761 11.4499 8.41675 11.7901 9.31875 11.7884C10.41 11.7884 11.3845 11.3197 12.0202 10.5903C12.0211 10.5894 12.0224 10.5889 12.0237 10.5889C12.025 10.5889 12.0262 10.5894 12.0272 10.5903L12.2925 10.8369C12.9539 11.4504 13.8232 11.7906 14.7253 11.7889C15.817 11.7889 16.793 11.3201 17.4281 10.5884C18.0637 11.3201 19.0392 11.7889 20.1314 11.7889H20.2481C20.8293 11.7672 21.3948 11.5943 21.8888 11.2873C21.9333 11.2606 21.9759 11.2325 22.0191 11.2044C22.3523 10.9797 22.6422 10.6967 22.875 10.3691L22.9688 10.2284C23.0109 10.1328 23.4942 9.27687 23.0892 8.40546Z" fill="#0377A6"/>
</svg>
