<svg width="52" height="35" viewBox="0 0 52 35" fill="none" xmlns="http://www.w3.org/2000/svg">
<path d="M0.5 4C0.5 2.067 2.067 0.5 4 0.5H48C49.933 0.5 51.5 2.067 51.5 4V30.6667C51.5 32.5997 49.933 34.1667 48 34.1667H4C2.067 34.1667 0.5 32.5997 0.5 30.6667V4Z" fill="white" stroke="#DDDDDD"/>
<path fill-rule="evenodd" clip-rule="evenodd" d="M25.9998 25.0839C24.2403 26.6008 21.9581 27.5166 19.4643 27.5166C13.8997 27.5166 9.38867 22.9573 9.38867 17.3332C9.38867 11.7091 13.8997 7.1499 19.4643 7.1499C21.9581 7.1499 24.2403 8.06563 25.9998 9.58254C27.7592 8.06563 30.0414 7.1499 32.5352 7.1499C38.0998 7.1499 42.6108 11.7091 42.6108 17.3332C42.6108 22.9573 38.0998 27.5166 32.5352 27.5166C30.0414 27.5166 27.7592 26.6008 25.9998 25.0839Z" fill="#ED0006"/>
<path fill-rule="evenodd" clip-rule="evenodd" d="M26 25.0839C28.1664 23.2161 29.5401 20.4368 29.5401 17.3332C29.5401 14.2297 28.1664 11.4503 26 9.58254C27.7594 8.06563 30.0416 7.1499 32.5355 7.1499C38.1001 7.1499 42.6111 11.7091 42.6111 17.3332C42.6111 22.9573 38.1001 27.5166 32.5355 27.5166C30.0416 27.5166 27.7594 26.6008 26 25.0839Z" fill="#F9A000"/>
<path fill-rule="evenodd" clip-rule="evenodd" d="M25.9999 25.0837C28.1663 23.2159 29.5399 20.4366 29.5399 17.3331C29.5399 14.2296 28.1663 11.4503 25.9999 9.58252C23.8336 11.4503 22.46 14.2296 22.46 17.3331C22.46 20.4366 23.8336 23.2159 25.9999 25.0837Z" fill="#FF5E00"/>
</svg>
