<svg width="20" height="24" viewBox="0 0 20 24" fill="none" xmlns="http://www.w3.org/2000/svg">
<path d="M19.4294 21.4286C19.4294 21.8832 19.2488 22.3193 18.9273 22.6408C18.6058 22.9622 18.1698 23.1429 17.7151 23.1429H2.28655C1.83189 23.1429 1.39586 22.9622 1.07437 22.6408C0.752877 22.3193 0.572266 21.8832 0.572266 21.4286V2.57143C0.572266 2.11678 0.752877 1.68074 1.07437 1.35925C1.39586 1.03776 1.83189 0.857147 2.28655 0.857147H13.4294L19.4294 6.85715V21.4286Z" stroke="#049DBF" stroke-linecap="round" stroke-linejoin="round"/>
<path d="M8.80515 8.17886C8.60964 8.17886 8.42215 8.25653 8.28391 8.39477C8.14567 8.53301 8.068 8.7205 8.068 8.91601V10.9869H5.99886C5.80366 10.9869 5.61642 11.0643 5.47823 11.2022C5.34004 11.34 5.26217 11.5271 5.26172 11.7223V14.1137C5.26172 14.5217 5.59258 14.8509 5.99886 14.8509H8.068V16.92C8.068 17.328 8.39886 17.6571 8.80515 17.6571H11.1966C11.3921 17.6571 11.5796 17.5795 11.7178 17.4412C11.8561 17.303 11.9337 17.1155 11.9337 16.92V14.8509H14.0029C14.1984 14.8509 14.3859 14.7732 14.5241 14.635C14.6623 14.4967 14.74 14.3092 14.74 14.1137V11.7223C14.74 11.5268 14.6623 11.3393 14.5241 11.2011C14.3859 11.0628 14.1984 10.9851 14.0029 10.9851H11.9337V8.91772C11.9337 8.72222 11.8561 8.53472 11.7178 8.39648C11.5796 8.25824 11.3921 8.18058 11.1966 8.18058L8.80515 8.17886Z" fill="#049DBF" stroke="#049DBF" stroke-linecap="round" stroke-linejoin="round"/>
</svg>
