<svg width="24" height="25" viewBox="0 0 24 25" fill="none" xmlns="http://www.w3.org/2000/svg">
<g clip-path="url(#clip0_249_846)">
<path fill-rule="evenodd" clip-rule="evenodd" d="M12 0.423584C10.1293 0.423584 7.84129 1.10758 6.49062 1.57758C5.83196 1.80692 5.50196 2.52225 5.71996 3.18425L7.15196 7.53158C6.7794 8.34411 6.61703 9.23725 6.67978 10.1289C6.74253 11.0206 7.02839 11.8822 7.51108 12.6345C7.99377 13.3868 8.65782 14.0058 9.44218 14.4345C10.2266 14.8632 11.1061 15.0878 12 15.0878C12.8938 15.0878 13.7734 14.8632 14.5577 14.4345C15.3421 14.0058 16.0061 13.3868 16.4888 12.6345C16.9715 11.8822 17.2574 11.0206 17.3201 10.1289C17.3829 9.23725 17.2205 8.34411 16.848 7.53158L18.28 3.18492C18.498 2.52225 18.168 1.80692 17.5093 1.57825C16.158 1.10692 13.8706 0.423584 12 0.423584ZM8.25329 8.70692C10.758 7.67825 13.242 7.67825 15.7466 8.70692C15.7866 8.72336 15.828 8.73581 15.8706 8.74425C16.0246 9.33568 16.041 9.95452 15.9185 10.5533C15.7961 11.152 15.5381 11.7147 15.1643 12.1983C14.7906 12.6818 14.311 13.0732 13.7624 13.3425C13.2138 13.6119 12.6108 13.7519 11.9996 13.7519C11.3885 13.7519 10.7855 13.6119 10.2369 13.3425C9.68828 13.0732 9.20869 12.6818 8.83493 12.1983C8.46116 11.7147 8.20316 11.152 8.08072 10.5533C7.95828 9.95452 7.97467 9.33568 8.12862 8.74425C8.17129 8.73581 8.21284 8.72336 8.25329 8.70692ZM12.6666 3.75692H14V5.09025H12.6666V6.42358H11.3333V5.09025H9.99996V3.75692H11.3333V2.42358H12.6666V3.75692Z" fill="#0377A6"/>
<path fill-rule="evenodd" clip-rule="evenodd" d="M11.2333 17.8857L7.25333 15.0903C7.25333 15.0903 0 17.3523 0 20.0683V24.4237H24V20.0683C24 17.3523 16.7473 15.0903 16.7473 15.0903L12.766 17.8857C12.5416 18.0432 12.2741 18.1277 12 18.1277C11.7259 18.1277 11.4577 18.0432 11.2333 17.8857ZM17.3333 17.757H18.6667V19.0903H20V20.4237H18.6667V21.757H17.3333V20.4237H16V19.0903H17.3333V17.757Z" fill="#0377A6"/>
</g>
<defs>
<clipPath id="clip0_249_846">
<rect width="24" height="24" fill="white" transform="translate(0 0.423584)"/>
</clipPath>
</defs>
</svg>
