<svg width="145" height="125" viewBox="0 0 145 125" fill="none" xmlns="http://www.w3.org/2000/svg">
<path d="M145.001 31.6516L141.846 46.9242L139.815 44.9439L136.359 47.4086L133.718 44.13L127.797 48.4333L122.735 39.9749L117.091 43.2799L114.852 40.1957L107.684 44.2321L105.527 39.6158L110.552 15.2949L137.49 20.8536L145.001 31.6516Z" fill="#EBEBEB"/>
<path d="M137.489 20.8536L145 31.6516L135.656 29.724L137.489 20.8536Z" fill="#DBDBDB"/>
<path d="M141.173 49.9755L136.547 72.3819L100.262 64.8955L104.855 42.6703L107.011 47.2834L114.182 43.2469L116.418 46.3311L122.066 43.0294L127.124 51.4879L133.049 47.1845L135.687 50.4598L139.145 47.9984L141.173 49.9755Z" fill="#EBEBEB"/>
<path d="M89.2379 47.3493L52.2601 49.6361L49.3223 2.20026L76.7812 0.5L86.8607 8.95185L89.2379 47.3493Z" fill="#EBEBEB"/>
<path d="M76.7812 0.5L86.8607 8.95185L77.3385 9.54167L76.7812 0.5Z" fill="#DBDBDB"/>
<path d="M66.5439 32.4193L66.3988 31.3484C66.0262 29.1308 66.6329 26.6497 68.5617 24.0564C70.3026 21.7499 71.2456 20.1024 71.1401 18.2308C71.0214 16.1219 69.6201 14.7907 67.0121 14.8962C65.5215 14.9735 64.0898 15.5022 62.9071 16.4119L61.7695 13.8648C63.0884 12.7939 65.3964 12.0031 67.5891 11.8878C72.3469 11.6241 74.6615 14.4381 74.8429 17.5783C75.0011 20.389 73.5438 22.5012 71.6907 24.9692C69.9894 27.2197 69.4322 29.0748 69.6729 31.1738L69.7751 32.248L66.5439 32.4193ZM65.957 38.2549C65.8712 36.726 66.8439 35.5925 68.2914 35.5134C69.7388 35.4343 70.7939 36.4492 70.8796 37.9814C70.9588 39.4279 70.0718 40.5944 68.5419 40.6801C67.0813 40.7624 66.0262 39.7014 65.9438 38.2549H65.957Z" fill="#DBDBDB"/>
<path d="M18.7652 24.5801L15.046 22.8963L14.5284 24.0331C14.4519 24.1955 14.3327 24.3341 14.1834 24.434C14.0341 24.5338 13.8604 24.5912 13.681 24.5998C13.4766 24.6065 13.2729 24.6263 13.071 24.6591C12.8938 24.6854 12.7128 24.6632 12.5473 24.5947C12.3818 24.5262 12.238 24.4141 12.1313 24.2703L11.4026 23.2522L8.08237 25.6312L8.81105 26.6494C8.9124 26.7963 8.97205 26.968 8.98366 27.1461C8.99527 27.3242 8.95841 27.5021 8.87699 27.661C8.78298 27.8422 8.69825 28.028 8.62311 28.2178C8.55779 28.3852 8.44808 28.5316 8.30575 28.6413C8.16342 28.751 7.99386 28.8199 7.8153 28.8406L6.57227 28.9625L6.97122 33.0253L8.22086 32.9001C8.40007 32.8858 8.57979 32.9206 8.74071 33.0007C8.90163 33.0808 9.03766 33.2032 9.13417 33.3548C9.18693 33.4405 9.24298 33.5229 9.30233 33.6053C9.36168 33.6876 9.42103 33.7667 9.48368 33.8458C9.59746 33.9842 9.67063 34.1513 9.69508 34.3287C9.71952 34.5061 9.69428 34.6869 9.62216 34.8508L9.1012 35.9975L12.8237 37.6846L13.3414 36.5412C13.4185 36.3788 13.5385 36.2406 13.6884 36.1413C13.8383 36.0421 14.0124 35.9855 14.192 35.9777C14.3941 35.9694 14.5956 35.9496 14.7954 35.9184C14.9726 35.8921 15.1536 35.9144 15.3191 35.9829C15.4846 36.0513 15.6284 36.1634 15.7351 36.3072L16.4638 37.3254L19.7874 34.9464L19.0587 33.9282C18.9542 33.7826 18.8927 33.6106 18.881 33.4318C18.8694 33.253 18.9081 33.0745 18.9927 32.9166C19.0846 32.7364 19.1671 32.5516 19.24 32.363C19.3034 32.1944 19.4126 32.0468 19.5553 31.9368C19.698 31.8268 19.8686 31.7587 20.0478 31.7402L21.2975 31.615L20.8952 27.5522L19.6456 27.6741C19.4675 27.6898 19.2885 27.6559 19.1285 27.5762C18.9685 27.4965 18.8336 27.3742 18.7389 27.2227C18.6828 27.137 18.6268 27.0547 18.5674 26.9723C18.5081 26.8899 18.4487 26.8075 18.3861 26.7317C18.273 26.5917 18.2004 26.4235 18.176 26.2452C18.1516 26.0669 18.1764 25.8854 18.2476 25.7202L18.7652 24.5801ZM16.655 28.3397C17.0406 28.8775 17.258 29.5174 17.2796 30.1785C17.3012 30.8397 17.1262 31.4924 16.7766 32.0542C16.427 32.6159 15.9186 33.0614 15.3156 33.3344C14.7126 33.6073 14.0422 33.6954 13.3891 33.5876C12.736 33.4797 12.1296 33.1807 11.6466 32.7284C11.1635 32.2761 10.8255 31.6908 10.6754 31.0466C10.5252 30.4023 10.5696 29.728 10.8029 29.1089C11.0363 28.4899 11.4481 27.9538 11.9862 27.5687C12.7077 27.0523 13.6049 26.8435 14.4804 26.9881C15.3559 27.1327 16.1381 27.6189 16.655 28.3397Z" fill="#EBEBEB"/>
<path d="M26.2896 12.4048L24.0178 14.1446L24.5421 14.8398C24.6203 14.9389 24.6684 15.0583 24.6807 15.1839C24.6929 15.3095 24.6689 15.436 24.6113 15.5483C24.5482 15.6765 24.4932 15.8086 24.4465 15.9437C24.4058 16.0627 24.3328 16.168 24.2355 16.2478C24.1382 16.3275 24.0206 16.3785 23.8958 16.3951L23.0254 16.5071L23.3947 19.3442L24.2651 19.2322C24.3918 19.2145 24.521 19.233 24.6376 19.2855C24.7543 19.3379 24.8538 19.4222 24.9246 19.5287C25.004 19.6434 25.0898 19.7534 25.1817 19.8582C25.2667 19.9516 25.323 20.0673 25.3441 20.1918C25.3651 20.3162 25.35 20.444 25.3004 20.5601L24.9707 21.3707L27.6085 22.4679L27.9382 21.6573C27.9873 21.5411 28.0679 21.4408 28.1711 21.368C28.2742 21.2952 28.3957 21.2528 28.5218 21.2455L28.7328 21.2224L28.9405 21.1894C29.0626 21.1665 29.1885 21.1773 29.3048 21.2209C29.4211 21.2645 29.5232 21.3391 29.6 21.4366L30.1374 22.1384L32.4092 20.3986L31.8783 19.7034C31.8016 19.6029 31.7545 19.4831 31.7423 19.3573C31.7301 19.2316 31.7532 19.1049 31.8091 18.9916C31.8716 18.8642 31.9266 18.7333 31.9739 18.5995C32.0146 18.4805 32.0877 18.3752 32.1849 18.2954C32.2822 18.2157 32.3998 18.1647 32.5246 18.1481L33.395 18.0361L33.0257 15.199L32.1553 15.311C32.0289 15.329 31.9 15.3111 31.7834 15.2592C31.6667 15.2073 31.5671 15.1236 31.4958 15.0178C31.4134 14.8992 31.3277 14.7871 31.2354 14.6883C31.1586 14.5929 31.1089 14.4787 31.0914 14.3575C31.074 14.2363 31.0896 14.1127 31.1365 13.9996L31.4662 13.189L28.8284 12.0918L28.4987 12.9023C28.449 13.0182 28.3682 13.118 28.2651 13.1907C28.1621 13.2634 28.041 13.3062 27.9151 13.3142L27.7041 13.334L27.5096 13.3406C27.3875 13.3636 27.2615 13.3527 27.1453 13.3091C27.029 13.2655 26.9269 13.191 26.8501 13.0935L26.2896 12.4048ZM27.9151 14.9519C28.3744 14.8929 28.8409 14.9711 29.2557 15.1768C29.6706 15.3824 30.0152 15.7062 30.2461 16.1074C30.477 16.5085 30.5838 16.969 30.5532 17.4307C30.5225 17.8925 30.3556 18.3348 30.0737 18.702C29.7918 19.0691 29.4073 19.3445 28.9689 19.4935C28.5305 19.6426 28.0578 19.6585 27.6103 19.5393C27.1629 19.4202 26.7608 19.1712 26.4547 18.824C26.1487 18.4767 25.9524 18.0466 25.8906 17.5879C25.8494 17.2819 25.8692 16.9707 25.9488 16.6723C26.0283 16.3739 26.1662 16.0941 26.3543 15.8491C26.5425 15.6042 26.7772 15.3988 27.0451 15.2448C27.3129 15.0908 27.6086 14.9912 27.9151 14.9519Z" fill="#EBEBEB"/>
<path d="M115.119 124.5H14.6602L29.1842 42.1727H129.643L115.119 124.5Z" fill="#D9D9D9"/>
<path d="M63.5666 33.6451H30.6904L29.1836 42.1727H64.3678L63.5666 33.6451Z" fill="#D9D9D9"/>
<g opacity="0.1">
<path d="M115.119 124.5H14.6602L29.1842 42.1727H129.643L115.119 124.5Z" fill="black"/>
<path d="M63.5666 33.6451H30.6904L29.1836 42.1727H64.3678L63.5666 33.6451Z" fill="black"/>
</g>
<path d="M27.1414 37.1247C26.9216 36.1817 26.9216 35.2009 27.1414 34.258C27.3613 35.2009 27.3613 36.1817 27.1414 37.1247Z" fill="#A4A7AE"/>
<path d="M24.2208 37.9682C23.8851 37.6203 23.5958 37.2305 23.3602 36.8084C23.1131 36.3951 22.9192 35.9522 22.7832 35.4903C23.1199 35.8362 23.4093 36.2251 23.6438 36.6469C23.8903 37.0617 24.0842 37.5055 24.2208 37.9682Z" fill="#A4A7AE"/>
<path d="M22.1117 40.1594C21.1852 39.8779 20.3358 39.3875 19.6289 38.7261C20.0911 38.8604 20.5343 39.053 20.9478 39.2994C21.3702 39.5364 21.7612 39.8253 22.1117 40.1594Z" fill="#A4A7AE"/>
<path d="M21.3725 43.1118C20.4289 43.3315 19.4475 43.3315 18.5039 43.1118C19.4475 42.8921 20.4289 42.8921 21.3725 43.1118Z" fill="#A4A7AE"/>
<path d="M22.2295 46.0313C21.8799 46.365 21.49 46.6539 21.0689 46.8913C20.6554 47.1377 20.2122 47.3303 19.75 47.4646C20.0981 47.1291 20.4882 46.84 20.9106 46.6046C21.3234 46.357 21.7668 46.1643 22.2295 46.0313Z" fill="#A4A7AE"/>
<path d="M24.4186 48.1368C24.1379 49.0641 23.6472 49.9143 22.9844 50.6213C23.1186 50.1588 23.3126 49.7157 23.5614 49.3033C23.7964 48.8796 24.0845 48.4877 24.4186 48.1368Z" fill="#A4A7AE"/>
<path d="M27.3728 48.865C27.4877 49.334 27.5431 49.8156 27.5376 50.2984C27.5447 50.7813 27.4893 51.263 27.3728 51.7317C27.2546 51.2633 27.1992 50.7813 27.2079 50.2984C27.2024 49.8156 27.2578 49.334 27.3728 48.865Z" fill="#A4A7AE"/>
<path d="M30.2949 48.038C30.6306 48.3859 30.9199 48.7757 31.1555 49.1978C31.4032 49.6104 31.5961 50.0535 31.7292 50.5158C31.0664 49.8088 30.5756 48.9587 30.2949 48.0314V48.038Z" fill="#A4A7AE"/>
<path d="M32.4023 45.8303C32.865 45.9633 33.3084 46.156 33.7212 46.4036C34.1436 46.639 34.5337 46.9281 34.8818 47.2636C34.4191 47.1306 33.9758 46.9379 33.5629 46.6903C33.1406 46.4548 32.7505 46.1658 32.4023 45.8303Z" fill="#A4A7AE"/>
<path d="M33.1309 42.8779C34.0755 42.6583 35.058 42.6583 36.0027 42.8779C35.058 43.0975 34.0755 43.0975 33.1309 42.8779Z" fill="#A4A7AE"/>
<path d="M32.2859 39.9584C32.6349 39.625 33.0249 39.3371 33.4465 39.1017C33.8585 38.8518 34.3021 38.6579 34.7654 38.5251C34.0579 39.1875 33.2072 39.6779 32.2793 39.9584H32.2859Z" fill="#A4A7AE"/>
<path d="M30.0938 37.8529C30.2295 37.3915 30.4222 36.9487 30.6675 36.5349C30.903 36.1128 31.1923 35.7229 31.528 35.375C31.3949 35.8374 31.202 36.2805 30.9543 36.693C30.7187 37.1151 30.4295 37.505 30.0938 37.8529Z" fill="#A4A7AE"/>
<path d="M114.969 124.5H14.2966L0 45.1614H100.676L114.969 124.5Z" fill="#D9D9D9"/>
<path d="M34.8872 93.6615C37.1981 93.6615 39.0714 91.7894 39.0714 89.48C39.0714 87.1707 37.1981 85.2986 34.8872 85.2986C32.5764 85.2986 30.7031 87.1707 30.7031 89.48C30.7031 91.7894 32.5764 93.6615 34.8872 93.6615Z" fill="#A4A7AE"/>
<path d="M67.9654 93.6615C70.2762 93.6615 72.1495 91.7894 72.1495 89.48C72.1495 87.1707 70.2762 85.2986 67.9654 85.2986C65.6545 85.2986 63.7812 87.1707 63.7812 89.48C63.7812 91.7894 65.6545 93.6615 67.9654 93.6615Z" fill="#A4A7AE"/>
<path d="M57.4378 94.3304L57.207 93.8921C57.1873 93.8526 55.0243 89.859 50.6753 89.859C46.7187 89.859 45.7296 93.6186 45.7032 93.7801L45.5845 94.2579L44.625 94.0272L44.7404 93.5461C44.7404 93.5 45.9208 88.8704 50.6753 88.8704C55.6211 88.8704 57.9852 93.2463 58.0841 93.4341L58.3149 93.8691L57.4378 94.3304Z" fill="#A4A7AE"/>
</svg>
