<svg width="24" height="24" viewBox="0 0 24 24" fill="none" xmlns="http://www.w3.org/2000/svg">
    <path fill-rule="evenodd" clip-rule="evenodd"
        d="M12.0001 0C10.1294 0 7.84141 0.684 6.49075 1.154C5.83208 1.38333 5.50208 2.09867 5.72008 2.76067L7.15208 7.108C6.77952 7.92053 6.61715 8.81366 6.6799 9.70533C6.74266 10.597 7.02851 11.4586 7.5112 12.2109C7.9939 12.9633 8.65794 13.5822 9.44231 14.0109C10.2267 14.4396 11.1062 14.6642 12.0001 14.6642C12.8939 14.6642 13.7735 14.4396 14.5579 14.0109C15.3422 13.5822 16.0063 12.9633 16.489 12.2109C16.9716 11.4586 17.2575 10.597 17.3203 9.70533C17.383 8.81366 17.2206 7.92053 16.8481 7.108L18.2801 2.76133C18.4981 2.09867 18.1681 1.38333 17.5094 1.15467C16.1581 0.683333 13.8707 0 12.0001 0ZM8.25341 8.28333C10.7581 7.25467 13.2421 7.25467 15.7467 8.28333C15.7867 8.29978 15.8281 8.31222 15.8707 8.32067C16.0247 8.9121 16.0411 9.53094 15.9186 10.1297C15.7962 10.7284 15.5382 11.2912 15.1644 11.7747C14.7907 12.2582 14.3111 12.6496 13.7625 12.919C13.2139 13.1883 12.6109 13.3283 11.9997 13.3283C11.3886 13.3283 10.7856 13.1883 10.237 12.919C9.68841 12.6496 9.20882 12.2582 8.83505 11.7747C8.46128 11.2912 8.20328 10.7284 8.08084 10.1297C7.9584 9.53094 7.97479 8.9121 8.12875 8.32067C8.17141 8.31222 8.21297 8.29978 8.25341 8.28333ZM12.6667 3.33333H14.0001V4.66667H12.6667V6H11.3334V4.66667H10.0001V3.33333H11.3334V2H12.6667V3.33333Z"
        fill="#0377A6" />
    <path fill-rule="evenodd" clip-rule="evenodd"
        d="M11.2333 17.4618L7.25333 14.6665C7.25333 14.6665 0 16.9285 0 19.6445V23.9998H24V19.6445C24 16.9285 16.7473 14.6665 16.7473 14.6665L12.766 17.4618C12.5416 17.6193 12.2741 17.7038 12 17.7038C11.7259 17.7038 11.4577 17.6193 11.2333 17.4618ZM17.3333 17.3332H18.6667V18.6665H20V19.9998H18.6667V21.3332H17.3333V19.9998H16V18.6665H17.3333V17.3332Z"
        fill="#0377A6" />
</svg>
