<svg width="20" height="22" viewBox="0 0 20 22" fill="none" xmlns="http://www.w3.org/2000/svg">
<path d="M12.9081 10.1022C12.0473 10.6774 11.0353 10.9844 10 10.9844C8.61176 10.9844 7.28037 10.4329 6.29874 9.45126C5.3171 8.46963 4.76562 7.13825 4.76562 5.75C4.76562 4.71474 5.07262 3.70273 5.64778 2.84194C6.22294 1.98115 7.04043 1.31025 7.99689 0.91407C8.95335 0.517893 10.0058 0.414235 11.0212 0.616204C12.0365 0.818174 12.9692 1.3167 13.7013 2.04874C14.4333 2.78078 14.9318 3.71346 15.1338 4.72883C15.3358 5.7442 15.2321 6.79665 14.8359 7.75311C14.4398 8.70957 13.7689 9.52707 12.9081 10.1022ZM0.265625 18.5C0.265625 16.5145 1.88212 15.0184 3.91164 14.0178C5.94027 13.0176 8.37541 12.5156 10 12.5156C11.6246 12.5156 14.0597 13.0176 16.0884 14.0178C18.1179 15.0184 19.7344 16.5145 19.7344 18.5V21.4844H0.265625V18.5Z" fill="#049DBF" stroke="#049DBF" stroke-width="0.03125"/>
</svg>
