<svg width="24" height="25" viewBox="0 0 24 25" fill="none" xmlns="http://www.w3.org/2000/svg">
<path d="M8.99998 5.42363C8.99998 5.01763 9.15198 4.67663 9.35598 4.53963C9.50598 4.43963 10.069 4.20363 11.546 4.95563C11.7822 5.07549 12.0564 5.09671 12.3083 5.01463C12.5601 4.93255 12.7692 4.75388 12.8894 4.51784C13.0097 4.2818 13.0314 4.00768 12.9498 3.75566C12.8681 3.50364 12.6898 3.29431 12.454 3.17363C10.731 2.29663 9.29398 2.17363 8.24398 2.87763C7.24798 3.54463 6.99998 4.69763 6.99998 5.42363H4.99998C4.44798 5.42363 3.99198 5.87363 4.08098 6.41963C4.17719 7.00261 4.35493 7.56916 4.60898 8.10263C5.01098 8.95263 5.59998 9.72263 6.34298 10.3726C7.10734 11.0343 7.98747 11.549 8.93898 11.8906C9.59898 12.1306 10.293 12.2906 11 12.3686V15.4236H13V12.3686C13.6586 12.2959 14.3072 12.1507 14.934 11.9356C14.8664 12.1905 14.7491 12.4295 14.5888 12.6389C14.4285 12.8483 14.2284 13.0239 14 13.1556V15.2976C15.725 14.8536 17 13.2876 17 11.4236C17.0002 11.264 16.9621 11.1066 16.889 10.9646C17.159 10.782 17.415 10.585 17.657 10.3736C18.385 9.7439 18.9753 8.9708 19.391 8.10263C19.6438 7.56869 19.8215 7.00231 19.919 6.41963C20.009 5.87363 19.552 5.42363 19 5.42363H8.99998Z" fill="#0377A6"/>
<path d="M9.5 13.4236H10V15.4236H9.5C9.36739 15.4236 9.24021 15.4763 9.14645 15.57C9.05268 15.6638 9 15.791 9 15.9236C9 16.0562 9.05268 16.1834 9.14645 16.2771C9.24021 16.3709 9.36739 16.4236 9.5 16.4236H13.838C14.3083 16.4232 14.766 16.5763 15.1415 16.8595C15.517 17.1427 15.7899 17.5407 15.9188 17.993C16.0477 18.4453 16.0256 18.9274 15.8558 19.366C15.686 19.8046 15.3779 20.1759 14.978 20.4236H17V22.4236H7V20.4236H11C10.9999 20.217 11.0639 20.0154 11.183 19.8466C11.3106 19.6659 11.4945 19.5326 11.706 19.4676L13.889 18.7396C13.9257 18.7276 13.9569 18.7029 13.977 18.6699C13.9971 18.637 14.0048 18.5979 13.9987 18.5598C13.9925 18.5216 13.9729 18.487 13.9435 18.462C13.914 18.437 13.8766 18.4234 13.838 18.4236H9.5C8.83696 18.4236 8.20107 18.1602 7.73223 17.6914C7.26339 17.2225 7 16.5866 7 15.9236C7 15.2605 7.26339 14.6247 7.73223 14.1558C8.20107 13.687 8.83696 13.4236 9.5 13.4236Z" fill="#0377A6"/>
</svg>
