<svg width="20" height="20" viewBox="0 0 20 20" fill="none" xmlns="http://www.w3.org/2000/svg">
<path d="M11.5002 5.60001C11.5002 7.03218 10.9313 8.40569 9.91857 9.41839C8.90588 10.4311 7.53236 11 6.1002 11C4.66803 11 3.29452 10.4311 2.28182 9.41839C1.26912 8.40569 0.700195 7.03218 0.700195 5.60001C0.700195 4.16784 1.26912 2.79433 2.28182 1.78164C3.29452 0.768939 4.66803 0.200012 6.1002 0.200012C7.53236 0.200012 8.90588 0.768939 9.91857 1.78164C10.9313 2.79433 11.5002 4.16784 11.5002 5.60001ZM6.7002 3.20001C6.7002 3.04088 6.63698 2.88827 6.52446 2.77575C6.41194 2.66323 6.25933 2.60001 6.1002 2.60001C5.94107 2.60001 5.78845 2.66323 5.67593 2.77575C5.56341 2.88827 5.5002 3.04088 5.5002 3.20001V5.00001H3.7002C3.54107 5.00001 3.38845 5.06323 3.27593 5.17575C3.16341 5.28827 3.1002 5.44088 3.1002 5.60001C3.1002 5.75914 3.16341 5.91175 3.27593 6.02428C3.38845 6.1368 3.54107 6.20001 3.7002 6.20001H5.5002V8.00001C5.5002 8.15914 5.56341 8.31175 5.67593 8.42428C5.78845 8.5368 5.94107 8.60001 6.1002 8.60001C6.25933 8.60001 6.41194 8.5368 6.52446 8.42428C6.63698 8.31175 6.7002 8.15914 6.7002 8.00001V6.20001H8.5002C8.65933 6.20001 8.81194 6.1368 8.92446 6.02428C9.03698 5.91175 9.1002 5.75914 9.1002 5.60001C9.1002 5.44088 9.03698 5.28827 8.92446 5.17575C8.81194 5.06323 8.65933 5.00001 8.5002 5.00001H6.7002V3.20001ZM16.3002 3.80001H12.4518C12.3341 3.38558 12.1762 2.98366 11.9802 2.60001H16.3002C17.255 2.60001 18.1707 2.9793 18.8458 3.65443C19.5209 4.32956 19.9002 5.24523 19.9002 6.20001V15.8C19.9002 16.7548 19.5209 17.6705 18.8458 18.3456C18.1707 19.0207 17.255 19.4 16.3002 19.4H6.7002C5.74542 19.4 4.82974 19.0207 4.15461 18.3456C3.47948 17.6705 3.1002 16.7548 3.1002 15.8V11.48C3.481 11.6752 3.881 11.8324 4.3002 11.9516V15.8C4.3002 16.2476 4.4226 16.6664 4.6362 17.024L10.239 11.5184C10.5756 11.1879 11.0285 11.0027 11.5002 11.0027C11.9719 11.0027 12.4248 11.1879 12.7614 11.5184L18.3654 17.024C18.5848 16.6534 18.7004 16.2307 18.7002 15.8V6.20001C18.7002 5.56349 18.4473 4.95304 17.9973 4.50296C17.5472 4.05287 16.9367 3.80001 16.3002 3.80001ZM16.3002 8.00001C16.3002 8.23639 16.2536 8.47046 16.1632 8.68884C16.0727 8.90723 15.9401 9.10566 15.773 9.27281C15.6058 9.43995 15.4074 9.57254 15.189 9.663C14.9706 9.75345 14.7366 9.80001 14.5002 9.80001C14.2638 9.80001 14.0298 9.75345 13.8114 9.663C13.593 9.57254 13.3945 9.43995 13.2274 9.27281C13.0603 9.10566 12.9277 8.90723 12.8372 8.68884C12.7468 8.47046 12.7002 8.23639 12.7002 8.00001C12.7002 7.52262 12.8898 7.06479 13.2274 6.72722C13.565 6.38965 14.0228 6.20001 14.5002 6.20001C14.9776 6.20001 15.4354 6.38965 15.773 6.72722C16.1106 7.06479 16.3002 7.52262 16.3002 8.00001ZM15.1002 8.00001C15.1002 7.84088 15.037 7.68827 14.9245 7.57575C14.8119 7.46323 14.6593 7.40001 14.5002 7.40001C14.3411 7.40001 14.1885 7.46323 14.0759 7.57575C13.9634 7.68827 13.9002 7.84088 13.9002 8.00001C13.9002 8.15914 13.9634 8.31175 14.0759 8.42428C14.1885 8.5368 14.3411 8.60001 14.5002 8.60001C14.6593 8.60001 14.8119 8.5368 14.9245 8.42428C15.037 8.31175 15.1002 8.15914 15.1002 8.00001ZM5.4858 17.8712C5.85416 18.0869 6.27336 18.2004 6.7002 18.2H16.3002C16.7442 18.2 17.1582 18.08 17.5146 17.8712L11.9202 12.3752C11.808 12.2653 11.6572 12.2037 11.5002 12.2037C11.3431 12.2037 11.1924 12.2653 11.0802 12.3752L5.4858 17.8712Z" fill="#049DBF"/>
</svg>
