<svg width="24" height="24" viewBox="0 0 24 24" fill="none" xmlns="http://www.w3.org/2000/svg">
    <path
        d="M21.75 21V12.5555C21.246 12.7437 20.7146 12.8479 20.1769 12.8639C20.1216 12.8639 20.0691 12.8663 20.0175 12.8663C19.0766 12.8688 18.1537 12.6091 17.3522 12.1163C16.5508 12.609 15.6281 12.8687 14.6873 12.8663C13.7505 12.8675 12.8323 12.6043 12.0384 12.1069C11.2335 12.6062 10.3044 12.8693 9.35719 12.8663C8.4139 12.8675 7.4897 12.6006 6.69234 12.0966C5.89499 12.6006 4.97078 12.8675 4.0275 12.8663C3.97641 12.8663 3.92484 12.8663 3.86953 12.8639H3.86672C3.31332 12.8474 2.7667 12.7374 2.25 12.5386V21H0.75V22.5H23.25V21H21.75ZM10.5 18H6V14.4375C6 14.3878 6.01975 14.3401 6.05492 14.3049C6.09008 14.2698 6.13777 14.25 6.1875 14.25H10.3125C10.3622 14.25 10.4099 14.2698 10.4451 14.3049C10.4802 14.3401 10.5 14.3878 10.5 14.4375V18ZM18 21H14.25V14.4375C14.25 14.3878 14.2698 14.3401 14.3049 14.3049C14.3401 14.2698 14.3878 14.25 14.4375 14.25H17.8125C17.8622 14.25 17.9099 14.2698 17.9451 14.3049C17.9802 14.3401 18 14.3878 18 14.4375V21ZM23.0892 7.98187L20.9011 3C20.25 1.5 20.25 1.5 18.75 1.5H5.25C3.75 1.5 3.75 1.5 3.09656 3L0.908437 7.98187C0.486562 8.89172 1.04391 9.82594 1.04438 9.82641L1.06359 9.85734C1.08328 9.88828 1.11656 9.93937 1.13953 9.96844C1.14422 9.97453 1.14844 9.98109 1.15266 9.98719L1.39828 10.2867L1.64719 10.5277L1.66688 10.5445C1.80527 10.6626 1.95328 10.7689 2.10938 10.8623V10.8647C2.61952 11.1737 3.20073 11.346 3.79688 11.3648H3.91266C4.81466 11.3665 5.68379 11.0263 6.345 10.4128C6.44051 10.3244 6.53081 10.2304 6.61547 10.1316C6.70043 10.2303 6.79088 10.3242 6.88641 10.4128C7.54761 11.0263 8.41675 11.3665 9.31875 11.3648C10.41 11.3648 11.3845 10.8961 12.0202 10.1667C12.0211 10.1658 12.0224 10.1653 12.0237 10.1653C12.025 10.1653 12.0262 10.1658 12.0272 10.1667L12.2925 10.4133C12.9539 11.0268 13.8232 11.367 14.7253 11.3653C15.817 11.3653 16.793 10.8966 17.4281 10.1648C18.0637 10.8966 19.0392 11.3653 20.1314 11.3653H20.2481C20.8293 11.3436 21.3948 11.1707 21.8888 10.8637C21.9333 10.837 21.9759 10.8089 22.0191 10.7808C22.3523 10.5561 22.6422 10.2731 22.875 9.94547L22.9688 9.80484C23.0109 9.70922 23.4942 8.85328 23.0892 7.98187Z"
        fill="#0377A6" />
</svg>
