<svg width="24" height="25" viewBox="0 0 24 25" fill="none" xmlns="http://www.w3.org/2000/svg">
<g clip-path="url(#clip0_249_828)">
<path d="M0.248535 15.6899H19.5757V17.2113H0.248535V15.6899Z" fill="#0377A6"/>
<path d="M14.6107 19.798C14.6107 18.784 10.1464 18.8856 10.1464 19.8115V23.2431C10.1017 23.7156 10.4449 24.1791 10.9192 24.1791L22.8772 24.1799C22.9902 24.18 23.102 24.1579 23.2064 24.1147C23.3108 24.0716 23.4056 24.0083 23.4855 23.9285C23.5653 23.8486 23.6287 23.7538 23.6719 23.6495C23.715 23.5451 23.7372 23.4333 23.7371 23.3204L23.7382 12.4551C23.7382 5.62787 17.8781 0.14049 10.9219 0.773115C10.6947 0.793861 10.485 0.903926 10.3389 1.07914C10.1928 1.25436 10.1222 1.48039 10.1426 1.70762V5.40512H14.6107V2.78612C18.8816 3.93137 22.017 7.83062 22.0185 12.4517C22.0031 17.0699 18.8835 20.9871 14.6107 22.1264V19.7972V19.798Z" fill="#0377A6"/>
<path d="M16.1163 12.4813C16.1161 12.2284 16.1657 11.978 16.2624 11.7444C16.3591 11.5107 16.5008 11.2984 16.6796 11.1196C16.8584 10.9408 17.0706 10.799 17.3043 10.7023C17.5379 10.6056 17.7883 10.5559 18.0412 10.556C18.5518 10.5562 19.0416 10.7591 19.4028 11.12C19.7641 11.481 19.9673 11.9706 19.9679 12.4813C19.9668 12.9919 19.7634 13.4812 19.4023 13.8422C19.0412 14.2032 18.5518 14.4064 18.0412 14.4073C17.5307 14.4066 17.0413 14.2034 16.6804 13.8423C16.3196 13.4813 16.1167 12.9918 16.1163 12.4813ZM13.6544 10.4885H7.20403L0.233154 11.5554V14.4047L5.30353 14.4054C5.14345 14.1504 5.05797 13.8556 5.05678 13.5545C5.05747 13.1227 5.22933 12.7088 5.53469 12.4036C5.84005 12.0983 6.25399 11.9265 6.68578 11.9259H10.2187L13.0818 11.3278L13.2412 12.0879L10.2989 12.7022H6.68578C6.57394 12.7014 6.46305 12.7227 6.35945 12.7648C6.25584 12.8069 6.16154 12.8691 6.08194 12.9476C5.92118 13.1063 5.83002 13.3223 5.82853 13.5482C5.82704 13.774 5.91533 13.9912 6.07399 14.152C6.23264 14.3128 6.44866 14.4039 6.67453 14.4054L13.6683 14.4065C14.7505 14.3979 15.6183 13.5268 15.6183 12.4502C15.6183 12.1923 15.5675 11.937 15.4688 11.6988C15.3701 11.4606 15.2254 11.2442 15.0429 11.062C14.8605 10.8798 14.6439 10.7354 14.4056 10.637C14.1673 10.5386 13.9122 10.4881 13.6544 10.4885Z" fill="#0377A6"/>
</g>
<defs>
<clipPath id="clip0_249_828">
<rect width="24" height="24" fill="white" transform="translate(0 0.423584)"/>
</clipPath>
</defs>
</svg>
