<svg width="21" height="20" viewBox="0 0 21 20" fill="none" xmlns="http://www.w3.org/2000/svg">
<path d="M9.17344 15.25C7.93236 15.25 6.71916 14.882 5.68724 14.1925C4.65532 13.503 3.85104 12.5229 3.3761 11.3763C2.90116 10.2297 2.77689 8.96804 3.01901 7.75081C3.26113 6.53358 3.85877 5.41548 4.73635 4.5379C5.61392 3.66033 6.73202 3.06269 7.94925 2.82057C9.16648 2.57845 10.4282 2.70272 11.5748 3.17766C12.7214 3.6526 13.7014 4.45688 14.3909 5.4888C15.0804 6.52071 15.4484 7.73392 15.4484 8.975C15.4484 9.79904 15.2861 10.615 14.9708 11.3763C14.6554 12.1377 14.1932 12.8294 13.6105 13.4121C13.0278 13.9948 12.3361 14.457 11.5748 14.7723C10.8135 15.0877 9.99749 15.25 9.17344 15.25ZM9.17344 3.95833C8.18453 3.95833 7.21784 4.25158 6.39559 4.80099C5.57334 5.35039 4.93248 6.13129 4.55404 7.04492C4.1756 7.95855 4.07659 8.96388 4.26951 9.93378C4.46244 10.9037 4.93864 11.7946 5.63791 12.4939C6.33717 13.1931 7.22808 13.6693 8.19799 13.8623C9.16789 14.0552 10.1732 13.9562 11.0869 13.5777C12.0005 13.1993 12.7814 12.5584 13.3308 11.7362C13.8802 10.9139 14.1734 9.94724 14.1734 8.95833C14.1734 7.63225 13.6467 6.36048 12.709 5.4228C11.7713 4.48512 10.4995 3.95833 9.17344 3.95833Z" fill="#049DBF"/>
<path d="M16.865 17.2917C16.7829 17.292 16.7016 17.276 16.6257 17.2446C16.5499 17.2131 16.4811 17.1668 16.4234 17.1083L12.9817 13.6667C12.8713 13.5482 12.8112 13.3915 12.8141 13.2296C12.8169 13.0676 12.8825 12.9132 12.997 12.7986C13.1115 12.6841 13.266 12.6185 13.4279 12.6157C13.5899 12.6128 13.7466 12.6729 13.865 12.7833L17.3067 16.225C17.4238 16.3422 17.4895 16.501 17.4895 16.6667C17.4895 16.8323 17.4238 16.9911 17.3067 17.1083C17.249 17.1668 17.1802 17.2131 17.1044 17.2446C17.0285 17.276 16.9472 17.292 16.865 17.2917Z" fill="#049DBF"/>
</svg>
