<svg width="16" height="17" viewBox="0 0 16 17" fill="none" xmlns="http://www.w3.org/2000/svg">
<path fill-rule="evenodd" clip-rule="evenodd" d="M4.6665 8.5V11.1667H7.33317V8.5H4.6665ZM6.6665 10.5V9.16667H5.33317V10.5H6.6665Z" fill="#0377A6"/>
<path fill-rule="evenodd" clip-rule="evenodd" d="M6.33333 2.5C5.92057 2.4999 5.51788 2.62751 5.18051 2.86534C4.84314 3.10316 4.58762 3.43954 4.449 3.82833H2V4.65533L3.33333 5.66533V13.8333H2.33333C2.24493 13.8333 2.16014 13.8685 2.09763 13.931C2.03512 13.9935 2 14.0783 2 14.1667C2 14.2551 2.03512 14.3399 2.09763 14.4024C2.16014 14.4649 2.24493 14.5 2.33333 14.5H3.33333V14.505H12.6667V14.5H13.6667C13.7551 14.5 13.8399 14.4649 13.9024 14.4024C13.9649 14.3399 14 14.2551 14 14.1667C14 14.0783 13.9649 13.9935 13.9024 13.931C13.8399 13.8685 13.7551 13.8333 13.6667 13.8333H12.6667V5.67733L14.1667 4.66733V3.828H8.21767C8.07899 3.43927 7.82345 3.10296 7.48608 2.8652C7.14872 2.62744 6.74606 2.49987 6.33333 2.5ZM8.21967 5.16667C8.29513 4.95251 8.33356 4.72706 8.33333 4.5V4.495H13.229L12.2317 5.16667H8.21967ZM7.824 5.83333C7.63641 6.04307 7.40667 6.21085 7.14981 6.32573C6.89294 6.44061 6.61472 6.49999 6.33333 6.5C6.05195 6.49999 5.77373 6.44061 5.51686 6.32573C5.25999 6.21085 5.03026 6.04307 4.84267 5.83333H4V13.8333H8V8.5H11.3333V13.8333H12V5.83333H7.824ZM4.33333 4.5C4.33333 4.73367 4.37333 4.958 4.447 5.16667H3.77867L2.892 4.495H4.33333V4.5ZM6.66667 4.16667V3.5H6V4.16667H5.33333V4.83333H6V5.5H6.66667V4.83333H7.33333V4.16667H6.66667ZM10.6667 9.16667V13.8333H8.66667V9.16667H10.6667Z" fill="#0377A6"/>
</svg>
