<svg width="16" height="17" viewBox="0 0 16 17" fill="none" xmlns="http://www.w3.org/2000/svg">
<path d="M9.34992 2.81351L10.4734 4.96851C10.557 5.12714 10.677 5.26372 10.8235 5.36706C10.97 5.47039 11.1389 5.53754 11.3164 5.56301L13.6894 5.88801C14.9584 6.06301 15.4504 7.62751 14.5119 8.49751L12.8869 9.997C12.7486 10.1244 12.6447 10.2848 12.585 10.4631C12.5253 10.6414 12.5117 10.832 12.5454 11.017L12.9419 13.216C13.1624 14.441 11.8879 15.396 10.7694 14.836L8.50142 13.711C8.3453 13.6345 8.17376 13.5948 7.99992 13.5948C7.82608 13.5948 7.65454 13.6345 7.49842 13.711L5.23042 14.836C4.11142 15.391 2.83742 14.441 3.05792 13.216L3.45442 11.0165C3.52442 10.6415 3.39442 10.2565 3.11342 9.99651L1.48792 8.49751C0.54942 7.63251 1.04142 6.06251 2.31042 5.88751L4.68342 5.56251C4.86143 5.53863 5.03103 5.47211 5.1778 5.3686C5.32458 5.2651 5.44417 5.12767 5.52642 4.96801L6.65042 2.81351C7.22242 1.72851 8.78242 1.72851 9.34942 2.81351" fill="#FCD53F"/>
</svg>
