<svg width="14" height="13" viewBox="0 0 14 13" fill="none" xmlns="http://www.w3.org/2000/svg">
<path d="M8.34992 0.813506L9.47342 2.96851C9.55699 3.12714 9.67695 3.26372 9.82348 3.36706C9.97001 3.47039 10.1389 3.53754 10.3164 3.56301L12.6894 3.88801C13.9584 4.06301 14.4504 5.62751 13.5119 6.49751L11.8869 7.997C11.7486 8.12442 11.6447 8.28476 11.585 8.4631C11.5253 8.64144 11.5117 8.83198 11.5454 9.017L11.9419 11.216C12.1624 12.441 10.8879 13.396 9.76942 12.836L7.50142 11.711C7.3453 11.6345 7.17376 11.5948 6.99992 11.5948C6.82608 11.5948 6.65454 11.6345 6.49842 11.711L4.23042 12.836C3.11142 13.391 1.83742 12.441 2.05792 11.216L2.45442 9.01651C2.52442 8.64151 2.39442 8.25651 2.11342 7.99651L0.48792 6.49751C-0.45058 5.63251 0.0414199 4.06251 1.31042 3.88751L3.68342 3.56251C3.86143 3.53863 4.03103 3.47211 4.1778 3.3686C4.32458 3.2651 4.44417 3.12767 4.52642 2.96801L5.65042 0.813506C6.22242 -0.271494 7.78242 -0.271494 8.34942 0.813506" fill="#FCD53F"/>
</svg>
