<svg width="13" height="14" viewBox="0 0 13 14" fill="none" xmlns="http://www.w3.org/2000/svg">
<path d="M4.36663 6.46665C3.65939 6.46665 2.98111 6.1857 2.48102 5.6856C1.98092 5.1855 1.69997 4.50723 1.69997 3.79998V1.66665C1.69997 1.5252 1.75616 1.38955 1.85618 1.28953C1.9562 1.18951 2.09185 1.13332 2.2333 1.13332H2.76663C2.90808 1.13332 3.04374 1.07713 3.14376 0.977107C3.24378 0.877088 3.29997 0.741433 3.29997 0.599984C3.29997 0.458535 3.24378 0.322879 3.14376 0.22286C3.04374 0.122841 2.90808 0.0666504 2.76663 0.0666504H2.2333C1.80895 0.0666504 1.40199 0.235221 1.10193 0.53528C0.801872 0.835338 0.633301 1.2423 0.633301 1.66665V3.79998C0.633986 4.40251 0.780913 4.99587 1.06146 5.52909C1.34201 6.06232 1.74779 6.51948 2.24397 6.86132C2.72116 7.2812 3.10808 7.79363 3.38128 8.36754C3.65449 8.94144 3.80827 9.56486 3.8333 10.2C3.8333 11.1901 4.22663 12.1397 4.92677 12.8398C5.6269 13.54 6.57649 13.9333 7.56663 13.9333C8.55678 13.9333 9.50636 13.54 10.2065 12.8398C10.9066 12.1397 11.3 11.1901 11.3 10.2V9.59198C11.8027 9.46217 12.2409 9.15346 12.5323 8.72371C12.8237 8.29397 12.9484 7.77268 12.883 7.25758C12.8175 6.74248 12.5665 6.26893 12.1769 5.92568C11.7873 5.58243 11.2859 5.39306 10.7666 5.39306C10.2474 5.39306 9.74598 5.58243 9.35638 5.92568C8.96677 6.26893 8.71573 6.74248 8.6503 7.25758C8.58488 7.77268 8.70956 8.29397 9.00098 8.72371C9.2924 9.15346 9.73055 9.46217 10.2333 9.59198V10.2C10.2333 10.9072 9.95235 11.5855 9.45225 12.0856C8.95216 12.5857 8.27388 12.8667 7.56663 12.8667C6.85939 12.8667 6.18111 12.5857 5.68102 12.0856C5.18092 11.5855 4.89997 10.9072 4.89997 10.2C4.92635 9.56407 5.0818 8.94017 5.35685 8.36622C5.63191 7.79227 6.02083 7.28025 6.49997 6.86132C6.99417 6.5183 7.39788 6.06061 7.67653 5.52746C7.95518 4.99431 8.10048 4.40156 8.09997 3.79998V1.66665C8.09997 1.2423 7.9314 0.835338 7.63134 0.53528C7.33128 0.235221 6.92431 0.0666504 6.49997 0.0666504H5.96663C5.82519 0.0666504 5.68953 0.122841 5.58951 0.22286C5.48949 0.322879 5.4333 0.458535 5.4333 0.599984C5.4333 0.741433 5.48949 0.877088 5.58951 0.977107C5.68953 1.07713 5.82519 1.13332 5.96663 1.13332H6.49997C6.64142 1.13332 6.77707 1.18951 6.87709 1.28953C6.97711 1.38955 7.0333 1.5252 7.0333 1.66665V3.79998C7.0333 4.15018 6.96433 4.49694 6.83031 4.82047C6.6963 5.14401 6.49988 5.43798 6.25225 5.6856C6.00463 5.93323 5.71066 6.12965 5.38712 6.26366C5.06359 6.39768 4.71683 6.46665 4.36663 6.46665ZM10.7666 8.59998C10.4837 8.59998 10.2124 8.4876 10.0124 8.28756C9.81235 8.08753 9.69997 7.81622 9.69997 7.53332C9.69997 7.25042 9.81235 6.97911 10.0124 6.77907C10.2124 6.57903 10.4837 6.46665 10.7666 6.46665C11.0495 6.46665 11.3208 6.57903 11.5209 6.77907C11.7209 6.97911 11.8333 7.25042 11.8333 7.53332C11.8333 7.81622 11.7209 8.08753 11.5209 8.28756C11.3208 8.4876 11.0495 8.59998 10.7666 8.59998Z" fill="#049DBF"/>
</svg>
