<svg width="20" height="20" viewBox="0 0 20 20" fill="none" xmlns="http://www.w3.org/2000/svg">
<path fill-rule="evenodd" clip-rule="evenodd" d="M15.3034 4.69671C15.9998 5.39316 16.5523 6.21996 16.9292 7.1299C17.3061 8.03985 17.5001 9.01513 17.5001 10C17.5001 10.985 17.3061 11.9602 16.9292 12.8702C16.5523 13.7801 15.9998 14.6069 15.3034 15.3034C14.6069 15.9998 13.7801 16.5523 12.8702 16.9292C11.9602 17.3061 10.985 17.5001 10 17.5001C9.01513 17.5001 8.03985 17.3061 7.1299 16.9292C6.21996 16.5523 5.39316 15.9998 4.69671 15.3034C3.29018 13.8968 2.5 11.9892 2.5 10C2.5 8.01091 3.29018 6.10324 4.69671 4.69671C6.10324 3.29018 8.01091 2.5 10 2.5C11.9892 2.5 13.8968 3.29018 15.3034 4.69671ZM13.4934 14.6717L5.32755 6.50671C4.48664 7.63025 4.0789 9.01925 4.17908 10.419C4.27926 11.8188 4.88065 13.1356 5.87299 14.1279C6.86532 15.1203 8.1821 15.7217 9.58189 15.8218C10.9817 15.922 12.3707 15.5143 13.4942 14.6734M14.125 5.87505C15.1171 6.86686 15.7185 8.18296 15.819 9.58215C15.9196 10.9813 15.5126 12.3699 14.6725 13.4934L6.50588 5.32755C7.62943 4.4873 9.01817 4.08014 10.4175 4.1807C11.8169 4.28125 13.1332 4.88279 14.125 5.87505Z" fill="#B3261E"/>
</svg>
