<svg width="20" height="20" viewBox="0 0 20 20" fill="none" xmlns="http://www.w3.org/2000/svg">
<path d="M5.83018 11.1667L5.83268 11.1667L5.84102 11.1667C6.19464 11.1667 6.53378 11.3072 6.78382 11.5572C7.03387 11.8073 7.17435 12.1464 7.17435 12.5C7.17435 12.8536 7.03387 13.1928 6.78382 13.4428C6.53378 13.6929 6.19464 13.8333 5.84102 13.8333M5.83018 11.1667L5.84102 13.3333M5.83018 11.1667C5.65509 11.1676 5.48188 11.2029 5.32045 11.2707C5.15901 11.3385 5.01252 11.4375 4.88933 11.5619L5.24465 11.9137L5.83018 11.1667ZM5.84102 13.8333V13.3333M5.84102 13.8333C5.84185 13.8333 5.84268 13.8333 5.84352 13.8333L5.84102 13.3333M5.84102 13.8333C5.66677 13.8339 5.49409 13.8003 5.33277 13.7344C5.17066 13.6682 5.02319 13.5707 4.89876 13.4475L5.25054 13.0922C5.32831 13.1692 5.42048 13.2301 5.5218 13.2715C5.62311 13.3129 5.73158 13.3339 5.84102 13.3333M8.22321 11.5572L8.57676 11.9108L8.22321 11.5572C7.97316 11.8072 7.83268 12.1464 7.83268 12.5C7.83268 12.8536 7.97316 13.1928 8.22321 13.4428L8.57676 13.0893L8.22321 13.4428C8.47325 13.6929 8.81239 13.8333 9.16602 13.8333H10.8327C11.1863 13.8333 11.5254 13.6929 11.7755 13.4428L11.4219 13.0893L11.7755 13.4428C12.0255 13.1928 12.166 12.8536 12.166 12.5C12.166 12.1464 12.0255 11.8072 11.7755 11.5572L11.4219 11.9108L11.7755 11.5572C11.5254 11.3072 11.1863 11.1667 10.8327 11.1667H9.16602C8.81239 11.1667 8.47325 11.3072 8.22321 11.5572ZM17.8327 8.83334V13.3333C17.8327 14.0848 17.5342 14.8055 17.0028 15.3368C16.4715 15.8682 15.7508 16.1667 14.9993 16.1667H4.99935C4.2479 16.1667 3.52723 15.8682 2.99588 15.3368C2.46453 14.8055 2.16602 14.0848 2.16602 13.3333V8.83334H17.8327ZM14.9993 3.83334C15.7508 3.83334 16.4715 4.13185 17.0028 4.66321C17.4148 5.07519 17.6868 5.60098 17.7882 6.16668H2.21047C2.31189 5.60098 2.5839 5.07519 2.99588 4.66321C3.52723 4.13185 4.2479 3.83334 4.99935 3.83334H14.9993Z" fill="#049DBF" stroke="#049DBF"/>
</svg>
