<svg width="20" height="20" viewBox="0 0 20 20" fill="none" xmlns="http://www.w3.org/2000/svg">
<path d="M17.8333 5V14.7512L13.5821 10.5H16.6667H17.1667V10V6.66667V6.16667H16.6667H9.24877L6.91544 3.83334H16.6667C16.9912 3.83334 17.2569 3.94315 17.4906 4.17689L17.837 3.83055L17.4906 4.17689C17.7243 4.41061 17.8337 4.6758 17.8333 4.99939V5ZM18.3333 5V15C18.3333 15.0802 18.3287 15.1593 18.3194 15.2373L18.3333 5ZM2.83333 10V10.5H3.33333H7.625H8.83211L7.97855 9.64645L4.64522 6.31312L4.49877 6.16667H4.29167H3.33333H2.83333V6.66667V10ZM16.8113 18.4584L16.8102 18.4572L14.6435 16.3114L14.4974 16.1667H14.2917H3.33333C3.00854 16.1667 2.74322 16.057 2.51022 15.8239C2.27727 15.591 2.16712 15.3253 2.16667 14.9997V5.24878L2.27145 5.35356L2.41789 5.5H2.625H4.79289L17.2923 17.9994C17.3715 18.0786 17.3958 18.1482 17.3958 18.2292C17.3958 18.3101 17.3715 18.3797 17.2923 18.459C17.2163 18.535 17.1444 18.5625 17.0525 18.5625C16.9605 18.5625 16.8881 18.5349 16.8113 18.4584ZM2.83211 4.5L2.50961 4.1775C2.50971 4.1774 2.50981 4.17729 2.50992 4.17719C2.69563 3.9918 2.90139 3.88431 3.14056 3.84767L3.79289 4.5H2.83211ZM1.80341 3.46948C1.80311 3.46979 1.8028 3.47009 1.8025 3.4704L1.47855 3.14645C1.40253 3.07043 1.375 2.9986 1.375 2.90667C1.375 2.81468 1.4026 2.74227 1.47914 2.66547C1.55475 2.5896 1.62609 2.56228 1.71796 2.5625C1.81172 2.56273 1.88381 2.59092 1.95895 2.66606L2.35604 3.06314C2.15692 3.1653 1.97213 3.30105 1.80341 3.46948Z" fill="#049DBF" stroke="#049DBF"/>
</svg>
