<svg width="20" height="20" viewBox="0 0 20 20" fill="none" xmlns="http://www.w3.org/2000/svg">
<path d="M7.83878 13.1812L7.83956 13.1708C7.88056 12.6257 8.12607 12.1163 8.52688 11.7446C8.92766 11.373 9.45408 11.1665 10.0007 11.1667L7.83878 13.1812ZM7.83878 13.1812L7.83843 13.1917M7.83878 13.1812L7.83843 13.1917M7.83843 13.1917L7.83426 13.3167L7.83398 13.325M7.83843 13.1917L7.83398 13.325M7.83398 13.325V13.3333M7.83398 13.325V13.3333M7.83398 13.3333C7.83398 13.7618 7.96106 14.1808 8.19913 14.5371M7.83398 13.3333L8.19913 14.5371M8.19913 14.5371C8.43721 14.8934 8.7756 15.1711 9.1715 15.3351M8.19913 14.5371L9.1715 15.3351M9.1715 15.3351C9.56741 15.4991 10.0031 15.542 10.4233 15.4584M9.1715 15.3351L10.4233 15.4584M10.4233 15.4584C10.8436 15.3748 11.2297 15.1684 11.5327 14.8654M10.4233 15.4584L11.5327 14.8654M11.5327 14.8654C11.8357 14.5624 12.0421 14.1763 12.1257 13.756M11.5327 14.8654L12.1257 13.756M12.1257 13.756C12.2093 13.3357 12.1664 12.9001 12.0024 12.5042M12.1257 13.756L12.0024 12.5042M12.0024 12.5042C11.8384 12.1083 11.5607 11.7699 11.2044 11.5318M12.0024 12.5042L11.2044 11.5318M11.2044 11.5318C10.8481 11.2938 10.4293 11.1667 10.0008 11.1667L11.2044 11.5318ZM13.6673 8.33332V8.83332H14.1673C14.6978 8.83332 15.2065 9.04404 15.5815 9.41911C15.9566 9.79418 16.1673 10.3029 16.1673 10.8333V15.8333C16.1673 16.3638 15.9566 16.8725 15.5815 17.2475C15.2065 17.6226 14.6978 17.8333 14.1673 17.8333H5.83398C5.30355 17.8333 4.79484 17.6226 4.41977 17.2475C4.0447 16.8725 3.83398 16.3638 3.83398 15.8333V10.8333C3.83398 10.3029 4.0447 9.79418 4.41977 9.41911C4.79484 9.04404 5.30355 8.83332 5.83398 8.83332H6.33398V8.33332V5.83332C6.33398 4.86086 6.72029 3.92823 7.40793 3.2406C8.09556 2.55296 9.02819 2.16666 10.0007 2.16666C10.9731 2.16666 11.9057 2.55296 12.5934 3.2406C13.281 3.92823 13.6673 4.86086 13.6673 5.83332V8.33332ZM7.00065 8.33332V8.83332H7.50065H12.5007H13.0007V8.33332V5.83332C13.0007 5.03767 12.6846 4.27461 12.122 3.712C11.5594 3.14939 10.7963 2.83332 10.0007 2.83332C9.205 2.83332 8.44194 3.14939 7.87933 3.712C7.31672 4.27461 7.00065 5.03767 7.00065 5.83332V8.33332Z" fill="#049DBF" stroke="#049DBF"/>
</svg>
