<svg width="52" height="34" viewBox="0 0 52 34" fill="none" xmlns="http://www.w3.org/2000/svg">
<path d="M0.5 4C0.5 2.067 2.067 0.5 4 0.5H48C49.933 0.5 51.5 2.067 51.5 4V30C51.5 31.933 49.933 33.5 48 33.5H4C2.067 33.5 0.5 31.933 0.5 30V4Z" fill="white" stroke="#DDDDDD"/>
<path fill-rule="evenodd" clip-rule="evenodd" d="M15.5282 22.9965H12.153L9.62202 13.545C9.50189 13.1103 9.24682 12.7259 8.87161 12.5448C7.93525 12.0895 6.90344 11.7272 5.77783 11.5445V11.1806H11.215C11.9654 11.1806 12.5282 11.7272 12.622 12.362L13.9352 19.1797L17.3088 11.1806H20.5901L15.5282 22.9965ZM22.4662 22.9965H19.2786L21.9034 11.1806H25.091L22.4662 22.9965ZM29.2147 14.4542C29.3085 13.8178 29.8713 13.4539 30.5279 13.4539C31.5597 13.3626 32.6837 13.5453 33.6217 13.999L34.1845 11.4549C33.2465 11.0911 32.2147 10.9083 31.2783 10.9083C28.1846 10.9083 25.9333 12.545 25.9333 14.8165C25.9333 16.5446 27.528 17.4519 28.6536 17.9985C29.8713 18.5435 30.3403 18.9074 30.2465 19.4525C30.2465 20.27 29.3085 20.6339 28.3722 20.6339C27.2465 20.6339 26.1209 20.3614 25.0908 19.9061L24.528 22.4517C25.6536 22.9054 26.8713 23.0881 27.997 23.0881C31.4659 23.1779 33.6217 21.5428 33.6217 19.0886C33.6217 15.9979 29.2147 15.8168 29.2147 14.4542ZM44.7781 22.9965L42.2471 11.1806H39.5285C38.9657 11.1806 38.4029 11.5445 38.2153 12.0895L33.5285 22.9965H36.8099L37.4649 21.2701H41.4967L41.8719 22.9965H44.7781ZM39.9975 14.3628L40.9338 18.816H38.309L39.9975 14.3628Z" fill="#172B85"/>
</svg>
