<svg width="20" height="20" viewBox="0 0 20 20" fill="none" xmlns="http://www.w3.org/2000/svg">
<path d="M8.81246 14.7298L8.66602 14.8762V15.0833V15.9167V16.1667H3.33268C3.0528 16.1667 2.76213 16.0557 2.51957 15.8131C2.27701 15.5706 2.16602 15.2799 2.16602 15V5.00001C2.16602 4.72012 2.27701 4.42945 2.51957 4.1869C2.76213 3.94434 3.0528 3.83334 3.33268 3.83334H16.666C17.3065 3.83334 17.8327 4.35949 17.8327 5.00001V5.70957L17.166 6.37624V6.16668H16.666H3.33268H2.83268V6.66668V9.16668V9.66668H3.33268H13.8756L9.31246 14.2298L8.81246 14.7298ZM17.4993 9.79045L18.4577 10.7488C18.4577 10.7492 18.4577 10.7496 18.4577 10.75C18.4577 10.7504 18.4577 10.7508 18.4577 10.7512L17.9993 11.2096L17.0398 10.25L17.4993 9.79045ZM11.3327 17V15.9547L15.8356 11.3767L16.8785 12.4196L12.3732 17H11.3327Z" fill="#049DBF" stroke="#049DBF"/>
</svg>
