<svg width="52" height="36" viewBox="0 0 52 36" fill="none" xmlns="http://www.w3.org/2000/svg">
<path d="M0.5 4.66667C0.5 2.73368 2.067 1.16667 4 1.16667H48C49.933 1.16667 51.5 2.73368 51.5 4.66667V31.3333C51.5 33.2663 49.933 34.8333 48 34.8333H4C2.067 34.8333 0.5 33.2663 0.5 31.3333V4.66667Z" fill="white"/>
<path d="M0.5 4.66667C0.5 2.73368 2.067 1.16667 4 1.16667H48C49.933 1.16667 51.5 2.73368 51.5 4.66667V31.3333C51.5 33.2663 49.933 34.8333 48 34.8333H4C2.067 34.8333 0.5 33.2663 0.5 31.3333V4.66667Z" stroke="#DDDDDD"/>
<g clip-path="url(#clip0_753_7640)">
<path d="M26 8.00001C23.3478 8.00001 20.8043 9.05358 18.9289 10.9289C17.0536 12.8043 16 15.3478 16 18C16 20.6522 17.0536 23.1957 18.9289 25.0711C20.8043 26.9464 23.3478 28 26 28C28.6522 28 31.1957 26.9464 33.0711 25.0711C34.9464 23.1957 36 20.6522 36 18C36 15.3478 34.9464 12.8043 33.0711 10.9289C31.1957 9.05358 28.6522 8.00001 26 8.00001ZM29.5417 8.93334C29.8083 8.93334 30.0833 8.95834 30.2583 9.01667C28.45 9.39167 27.0083 11.075 27.0167 13C27.0167 13.0417 27.0167 13.0917 27.025 13.1417C30.0583 13.8833 31.4167 15.7083 31.4167 18.2333C31.45 20.7583 29.45 23.5333 26.075 23.5417C23.35 23.55 20.5083 21.2167 20.4917 17.475C20.4833 15 21.8333 12.6167 23.5333 11.2083C25.2 9.82501 27.475 8.94167 29.5417 8.93334Z" fill="#D53B36"/>
</g>
<defs>
<clipPath id="clip0_753_7640">
<rect width="20" height="20" fill="white" transform="translate(16 8.00001)"/>
</clipPath>
</defs>
</svg>
