<svg width="21" height="20" viewBox="0 0 21 20" fill="none" xmlns="http://www.w3.org/2000/svg">
<g clip-path="url(#clip0_225_14011)">
<path d="M20.0015 16.725C17.0675 11.3656 14.1332 6.00625 11.1984 0.646874C11.1005 0.461398 10.9539 0.306144 10.7743 0.197848C10.5947 0.0895509 10.389 0.0323181 10.1793 0.0323181C9.96959 0.0323181 9.76386 0.0895509 9.58428 0.197848C9.40471 0.306144 9.25809 0.461398 9.16024 0.646874C6.22617 6.00625 3.28961 11.3656 0.357113 16.725C-0.0969495 17.5528 0.4818 18.6259 1.37524 18.6259H18.9846C19.4796 18.6259 19.8121 18.3594 19.9855 17.9978C20.2037 17.6534 20.2621 17.1963 20.0027 16.7244" fill="#FFDD15"/>
<path d="M9.23457 10.7741L8.95676 6.62969C8.9053 5.8224 8.87968 5.24271 8.87988 4.89063C8.87988 4.41125 9.00488 4.03844 9.25551 3.76938C9.50697 3.50167 9.8377 3.36771 10.2477 3.3675C10.7424 3.3675 11.0746 3.53969 11.2408 3.88188C11.4089 4.22604 11.4932 4.72094 11.4936 5.36656C11.4936 5.74656 11.473 6.13281 11.4318 6.52531L11.0599 10.7906C11.0197 11.2987 10.9335 11.6882 10.8014 11.9591C10.6683 12.2313 10.4489 12.3656 10.1424 12.3656C9.83238 12.3656 9.61426 12.2347 9.49488 11.9728C9.37207 11.71 9.28613 11.3103 9.23457 10.7741ZM10.1946 16.4669C9.84311 16.4673 9.53613 16.3534 9.27363 16.1253C9.01113 15.8976 8.87988 15.5791 8.87988 15.1697C8.87988 14.8125 9.00488 14.5072 9.25551 14.2569C9.50707 14.005 9.81363 13.88 10.1777 13.88C10.5418 13.88 10.8505 14.005 11.108 14.2569C11.3627 14.5072 11.4936 14.8125 11.4936 15.1697C11.4936 15.5728 11.3627 15.8909 11.1043 16.1209C10.8557 16.3472 10.5306 16.4708 10.1946 16.4669Z" fill="#1F2E35"/>
</g>
<defs>
<clipPath id="clip0_225_14011">
<rect width="20" height="20" fill="white" transform="translate(0.198242)"/>
</clipPath>
</defs>
</svg>
